<?xml version="1.0" encoding="UTF-8"?>
<svg width="260px" height="101px" viewBox="0 0 260 101" version="1.1" xmlns="http://www.w3.org/2000/svg" xmlns:xlink="http://www.w3.org/1999/xlink">
    <!-- Generator: Sketch 45.2 (43514) - http://www.bohemiancoding.com/sketch -->
    <title>CMYK_white_ESC_Lisbon_2018</title>
    <desc>Created with Sketch.</desc>
    <defs></defs>
    <g id="Website" stroke="none" stroke-width="1" fill="none" fill-rule="evenodd">
        <g id="CMYK_white_ESC_Lisbon_2018" transform="translate(0.000000, 0.500000)">
            <polyline id="Fill-1" fill="#D8232A" points="126.3054 50.7909677 130.4667 55.2316129 145.79435 39.6593548 157.35395 20.076129 153.05095 3.1716129 139.0922 4.08064516 130.4667 13.6883871 124.93845 9.71032258 126.3054 50.7909677"></polyline>
            <polyline id="Fill-2" fill="#188B43" points="108.74955 35.2845161 127.33955 50.88 125.5683 10.6032258 119.62145 7.79483871 110.3661 12.8406452 108.74955 35.2845161"></polyline>
            <path d="M110.95175,26.4277419 C111.09475,13.6967742 117.7696,9.7116129 121.4044,9.7116129 C126.48155,9.7116129 128.5778,13.5587097 128.92035,15.2619355 C129.26355,16.9632258 131.1843,18.3245161 131.8018,15.5335484 C132.41995,12.7419355 138.39215,4.23032258 145.73195,4.23032258 C152.4549,4.23032258 154.78255,11.1109677 154.58105,16.963871 C154.03115,32.8954839 133.3527,45.6116129 130.6305,53.6412903 C128.20665,48.7774194 110.7808,41.7483871 110.95175,26.4277419 Z M148.1337,0.281935484 C142.0965,0.281935484 134.9569,4.70709677 130.6357,12.0612903 C129.47025,9.40580645 125.31545,6.5116129 120.37675,6.5116129 C116.39745,6.51096774 105.2272,11.4477419 105.2272,27.3812903 C105.2272,47.9432258 126.1871,52.1670968 130.42445,58.5574194 C130.71565,58.9967742 131.6536,59.3290323 132.0111,58.2787097 C135.39175,48.3748387 161.6082,37.1851613 161.6082,17.0309677 C161.6082,5.72903226 154.1696,0.281935484 148.1337,0.281935484 L148.1337,0.281935484 Z" id="Fill-3" fill="#FFFFFE"></path>
            <path d="M132.93735,22.5470968 C134.6228,24.0806452 135.6355,26.0703226 135.9592,28.1516129 C136.03915,28.163871 136.11845,28.1774194 136.19515,28.1903226 L136.2374,29.1574194 L136.24325,29.2870968 L136.2855,30.2535484 C136.20815,30.2741935 136.12885,30.2941935 136.04825,30.3148387 C135.98325,31.2141935 135.79085,32.1083871 135.46975,32.9664516 C135.52955,33.0148387 135.58805,33.0625806 135.6446,33.1096774 L134.58185,35.1354839 L134.36345,35.0754839 C134.11385,35.4329032 133.8376,35.7774194 133.5334,36.1070968 C131.8642,37.9148387 129.65745,38.9425806 127.37855,39.1709677 L127.38765,39.3806452 L126.28265,39.4283871 L126.27355,39.2187097 C123.98295,39.1883871 121.6943,38.356129 119.87235,36.6987097 C118.19665,35.1748387 117.1859,33.1993548 116.85635,31.1316129 L116.68605,31.1032258 L116.59505,29.04 L116.7569,28.9987097 C116.8167,28.0754839 117.0104,27.1593548 117.3393,26.2793548 L117.1651,26.1367742 L118.22785,24.1103226 L118.4469,24.1709677 C118.69585,23.8135484 118.9721,23.4683871 119.27565,23.1393548 C120.9455,21.3309677 123.15225,20.3032258 125.43115,20.0748387 L125.42205,19.8651613 L126.52705,19.8167742 L126.53615,20.0270968 C128.82675,20.0574194 131.1154,20.8903226 132.93735,22.5470968 Z M125.476,21.0870968 L125.5839,23.5412903 C123.35895,23.6567742 121.33225,23.8793548 119.73,24.1619355 C119.82555,24.0464516 119.92435,23.9335484 120.02705,23.8219355 C121.50645,22.22 123.4571,21.3025806 125.476,21.0870968 Z M125.6242,24.4516129 L125.67555,25.6187097 C124.44835,25.6490323 123.27705,25.6012903 122.2,25.5148387 C121.67935,25.2987097 121.1782,25.1006452 120.7011,24.9219355 C122.12915,24.7109677 123.81135,24.5458065 125.6242,24.4516129 Z M125.72495,26.7451613 L125.7412,27.1174194 C125.48705,26.9935484 125.23485,26.8722581 124.98525,26.7541935 C125.229,26.7541935 125.476,26.7516129 125.72495,26.7451613 Z M125.93685,31.5651613 L125.97975,32.5412903 C123.08985,32.7193548 120.5412,33.3 118.8148,33.7451613 C118.38515,32.9658065 118.08485,32.1329032 117.9165,31.2780645 C119.96985,31.5154839 122.7421,31.6058065 125.81205,31.5012903 L125.93685,31.5651613 Z M126.02915,33.6677419 L126.08115,34.8354839 C123.60205,34.9225806 121.35305,34.856129 119.6546,34.6741935 C121.32705,34.2683871 123.5533,33.8206452 126.02915,33.6677419 Z M126.1208,35.7464516 L126.22935,38.2070968 C124.1994,38.1664516 122.1753,37.4219355 120.56135,35.9535484 C120.4476,35.8503226 120.3371,35.7445161 120.2305,35.6367742 C121.85355,35.7787097 123.89455,35.8245161 126.1208,35.7464516 Z M127.3337,38.1593548 L127.2258,35.6980645 C129.45595,35.5812903 131.4872,35.3574194 133.08945,35.0729032 C132.99065,35.1922581 132.8886,35.3090323 132.78265,35.423871 C131.30325,37.0264516 129.35195,37.9432258 127.3337,38.1593548 Z M127.1855,34.7877419 L127.13415,33.6212903 C128.3568,33.5922581 129.5242,33.6393548 130.5967,33.7264516 C131.11605,33.9419355 131.6159,34.1393548 132.09105,34.3174194 C130.6682,34.5283871 128.9925,34.6929032 127.1855,34.7877419 Z M127.08475,32.4941935 L127.0685,32.1283871 C127.3181,32.2503226 127.5664,32.3696774 127.81145,32.4858065 C127.5716,32.4858065 127.32915,32.4883871 127.08475,32.4941935 Z M126.87285,27.6812903 L126.82995,26.6974194 C129.7205,26.5174194 132.26785,25.9354839 133.99035,25.4909677 C134.42975,26.2851613 134.73395,27.136129 134.90165,28.0083871 C132.8587,27.7774194 130.1196,27.6890323 127.08865,27.7916129 L126.87285,27.6812903 Z M126.7799,25.5709677 L126.72855,24.403871 C129.19985,24.3180645 131.4404,24.3845161 133.1343,24.5664516 C131.46575,24.9709677 129.24795,25.4174194 126.7799,25.5709677 Z M126.6889,23.4929032 L126.581,21.0387097 C128.6103,21.0787097 130.6344,21.823871 132.249,23.2922581 C132.36145,23.3941935 132.47,23.4987097 132.5753,23.6051613 C130.9542,23.4625806 128.91515,23.416129 126.6889,23.4929032 Z M135.0401,29.1154839 C133.4294,28.9277419 131.37345,28.8309677 129.07635,28.8477419 C129.7946,29.243871 130.48165,29.6380645 131.13165,30.0264516 C132.61365,29.8632258 133.94355,29.6606452 135.0531,29.4322581 C135.0505,29.3264516 135.04595,29.2212903 135.0401,29.1154839 Z M121.7567,29.2664516 C120.2409,29.4335484 118.8837,29.6412903 117.75855,29.8754839 C117.7618,29.9741935 117.76635,30.0716129 117.7722,30.1696774 C119.3959,30.363871 121.4837,30.463871 123.81915,30.4458065 C123.09895,30.0496774 122.40865,29.6548387 121.7567,29.2664516 Z M117.7982,28.7612903 C118.5314,28.6109677 119.36015,28.4716129 120.2656,28.3477419 C119.49275,27.8535484 118.7953,27.3780645 118.1882,26.9322581 C117.98995,27.5290323 117.8606,28.1425806 117.7982,28.7612903 Z M132.61755,30.9458065 C133.48985,30.8258065 134.29195,30.6929032 135.005,30.5483871 C134.94,31.1451613 134.8126,31.7374194 134.62085,32.3135484 C134.0339,31.8825806 133.36115,31.4225806 132.61755,30.9458065 L132.61755,30.9458065 Z" id="Fill-4" fill="#FFF101"></path>
            <path d="M126.70125,36.3464516 C125.91995,36.38 125.1536,36.2548387 124.4256,35.9735484 C123.72945,35.7045161 123.0996,35.3077419 122.5536,34.7903226 C122.0141,34.28 121.5825,33.6793548 121.2705,33.0025806 C120.9494,32.3083871 120.76935,31.5651613 120.73555,30.7954839 L120.4099,23.3903226 L122.8435,23.2851613 L129.39615,23.0012903 L131.8304,22.8954839 L132.1567,30.3 C132.1905,31.0703226 132.0761,31.8258065 131.8174,32.5458065 C131.56585,33.2464516 131.1882,33.8819355 130.6968,34.4374194 C130.19825,35 129.60545,35.4496774 128.93595,35.7780645 C128.23395,36.1212903 127.4832,36.3122581 126.70125,36.3464516" id="Fill-5" fill="#FFFFFF"></path>
            <path d="M131.75435,32.523871 C131.50605,33.216129 131.1323,33.8445161 130.64675,34.3941935 C130.1534,34.9490323 129.5684,35.3948387 128.90605,35.7180645 C128.2138,36.0574194 127.47085,36.2470968 126.69865,36.28 C125.9258,36.3135484 125.16985,36.1896774 124.449,35.9109677 C123.7626,35.6458065 123.1399,35.2529032 122.6004,34.7425806 C122.06675,34.2374194 121.6397,33.643871 121.33095,32.9754839 C121.01375,32.2883871 120.835,31.5541935 120.8012,30.7916129 L120.4788,23.4535484 L131.7667,22.9645161 L132.0891,30.3032258 C132.1229,31.0645161 132.0098,31.8116129 131.75435,32.523871 Z M131.89475,22.8264516 L120.34035,23.3270968 L120.6686,30.7980645 C120.70305,31.5767742 120.88505,32.3277419 121.21005,33.0309677 C121.5253,33.7148387 121.9621,34.3225806 122.5081,34.8380645 C123.0606,35.3612903 123.69695,35.7632258 124.40155,36.0354839 C125.1263,36.3148387 125.88875,36.4425806 126.66615,36.4135484 L126.7422,36.4109677 L126.7422,36.4103226 C127.5196,36.3722581 128.2671,36.1787097 128.9652,35.8367742 C129.64315,35.5058065 130.2418,35.0496774 130.7462,34.4812903 C131.2441,33.92 131.62565,33.2767742 131.8811,32.5683871 C132.1424,31.84 132.25745,31.076129 132.223,30.2967742 L131.89475,22.8264516 L131.89475,22.8264516 Z" id="Fill-6" fill="#FFFFFF"></path>
            <path d="M126.6889,36.0703226 C125.94595,36.1025806 125.2186,35.9825806 124.52635,35.716129 C123.86465,35.4606452 123.26535,35.0812903 122.746,34.5896774 C122.23185,34.103871 121.8204,33.5316129 121.524,32.8883871 C121.2172,32.2258065 121.04625,31.5180645 121.01375,30.7825806 L120.70045,23.6541935 L122.85585,23.5606452 L129.40785,23.2767742 L131.56455,23.1832258 L131.87785,30.3122581 C131.91035,31.0470968 131.8018,31.7670968 131.55545,32.4535484 C131.3156,33.1206452 130.9555,33.7258065 130.48685,34.2541935 C130.01365,34.7890323 129.44945,35.2187097 128.81245,35.5303226 C128.1462,35.8554839 127.43185,36.0380645 126.6889,36.0703226" id="Fill-7" fill="#D8232A"></path>
            <path d="M125.9024,23.5806452 L125.90955,23.743871 C125.9102,23.7548387 125.91995,23.7632258 125.93035,23.7625806 L126.36325,23.743871 C126.3743,23.7432258 126.3834,23.7341935 126.38275,23.723871 L126.3756,23.56 L126.3223,23.5625806 L126.3262,23.6483871 L126.16825,23.6554839 L126.165,23.5690323 L126.1143,23.5716129 L126.1182,23.6574194 L125.9596,23.6645161 L125.9557,23.5780645 L125.9024,23.5806452" id="Fill-8" fill="#FFF101"></path>
            <path d="M126.2196,24.1483871 L126.10845,24.1529032 L126.1013,23.9858065 C126.1,23.9554839 126.12405,23.9290323 126.15395,23.9277419 C126.1858,23.9264516 126.21115,23.9509677 126.21245,23.9806452 L126.2196,24.1483871 Z M126.29435,23.8116129 L126.00575,23.823871 L126.00705,24.3832258 L126.34115,24.3690323 L126.29435,23.8116129 L126.29435,23.8116129 Z" id="Fill-9" fill="#FFF101"></path>
            <path d="M125.60015,24.2264516 C125.59885,24.1954839 125.6229,24.1696774 125.65345,24.1683871 C125.68465,24.1670968 125.71065,24.1909677 125.71195,24.2219355 L125.71715,24.3458065 L125.606,24.3503226 L125.60015,24.2264516 Z M125.5085,24.4045161 L125.8192,24.3916129 L125.79645,24.1258065 L125.50785,24.1387097 L125.5085,24.4045161 L125.5085,24.4045161 Z" id="Fill-10" fill="#FFF101"></path>
            <path d="M125.4045,23.8954839 L125.41165,24.0587097 C125.41165,24.0696774 125.42205,24.0780645 125.43375,24.0774194 L125.86535,24.0587097 C125.8764,24.0587097 125.88485,24.0490323 125.88485,24.0380645 L125.87705,23.8748387 L125.8244,23.8774194 L125.8283,23.9625806 L125.67035,23.9696774 L125.6671,23.883871 L125.61575,23.8864516 L125.61965,23.9722581 L125.46105,23.9787097 L125.45715,23.8929032 L125.4045,23.8954839" id="Fill-11" fill="#FFF101"></path>
            <path d="M126.3704,25.1 C126.334,25.003871 126.2755,24.9354839 126.19685,24.896129 C126.1234,24.9419355 126.0714,25.0148387 126.0428,25.1141935 C126.0272,25.1670968 126.0233,25.2167742 126.02135,25.2464516 L126.40355,25.2303226 C126.399,25.2 126.39055,25.1516129 126.3704,25.1" id="Fill-12" fill="#FFF101"></path>
            <path d="M126.4263,23.8509677 L126.43345,24.0141935 C126.4341,24.0251613 126.4432,24.0341935 126.45425,24.0335484 L126.8878,24.0148387 C126.8982,24.0141935 126.90665,24.0045161 126.906,23.9935484 L126.89885,23.8303226 L126.8462,23.8329032 L126.84945,23.9187097 L126.69215,23.9251613 L126.68825,23.84 L126.63755,23.8419355 L126.6408,23.9277419 L126.4835,23.9341935 L126.48025,23.8490323 L126.4263,23.8509677" id="Fill-13" fill="#FFF101"></path>
            <path d="M126.62195,24.1819355 C126.62065,24.1509677 126.64405,24.1251613 126.67525,24.123871 C126.70515,24.1225806 126.73245,24.1464516 126.73375,24.1774194 L126.73895,24.3012903 L126.62715,24.3064516 L126.62195,24.1819355 Z M126.5303,24.3606452 L126.841,24.3470968 L126.81825,24.0819355 L126.529,24.0941935 L126.5303,24.3606452 L126.5303,24.3606452 Z" id="Fill-14" fill="#FFF101"></path>
            <path d="M125.4578,24.683871 L126.91575,24.6206452 C126.9359,24.6193548 126.95215,24.6019355 126.95215,24.5819355 C126.95085,24.5625806 126.9333,24.5458065 126.9125,24.5464516 L125.45455,24.6096774 C125.4331,24.6109677 125.41815,24.6283871 125.4188,24.6483871 C125.4201,24.6683871 125.43635,24.6845161 125.4578,24.683871" id="Fill-15" fill="#FFF101"></path>
            <path d="M125.4136,24.5470968 L126.94825,24.4806452 C126.97035,24.4793548 126.9879,24.4625806 126.98725,24.4425806 C126.98595,24.4219355 126.96775,24.4064516 126.945,24.4070968 L125.41035,24.4735484 C125.3876,24.4748387 125.37005,24.4922581 125.3707,24.5129032 C125.372,24.5322581 125.39085,24.5477419 125.4136,24.5470968" id="Fill-16" fill="#FFF101"></path>
            <path d="M125.42205,25.4154839 L127.0152,25.3464516 C127.0386,25.3458065 127.0581,25.3277419 127.0568,25.3064516 C127.05615,25.2845161 127.03535,25.2677419 127.0113,25.2683871 L125.4188,25.3374194 C125.3954,25.3387097 125.3759,25.3567742 125.37655,25.3793548 C125.37785,25.4 125.39865,25.4167742 125.42205,25.4154839" id="Fill-17" fill="#FFF101"></path>
            <polyline id="Fill-18" fill="#FFF101" points="126.26575 24.7012903 126.26575 24.7 126.26575 24.7012903"></polyline>
            <path d="M126.5628,24.9451613 C126.62,25.056129 126.63755,25.1606452 126.64275,25.22 L126.9567,25.2064516 L126.88975,24.6864516 L126.35025,24.7096774 C126.43865,24.763871 126.51145,24.8432258 126.5628,24.9451613" id="Fill-19" fill="#FFF101"></path>
            <path d="M125.7815,25.2574194 C125.78215,25.1980645 125.78995,25.0922581 125.8374,24.9767742 C125.87965,24.8729032 125.94595,24.7858065 126.02915,24.7232258 L125.48965,24.7470968 L125.46755,25.2709677 L125.7815,25.2574194" id="Fill-20" fill="#FFF101"></path>
            <path d="M126.46855,25.2270968 L126.57775,25.2225806 C126.5732,25.1741935 126.5576,25.076129 126.5056,24.9754839 C126.4458,24.86 126.3613,24.7780645 126.2521,24.7316129 L126.2144,24.7154839 L126.16435,24.7174194 L126.12795,24.7374194 C126.02395,24.7929032 125.9466,24.8819355 125.8985,25.0012903 C125.85365,25.1070968 125.84715,25.2058065 125.84715,25.2541935 L125.95635,25.2496774 C125.95765,25.216129 125.9622,25.1593548 125.97975,25.0974194 C126.0038,25.0122581 126.0584,24.8974194 126.1806,24.8316129 L126.1897,24.8277419 L126.20465,24.8290323 L126.2092,24.8303226 C126.33595,24.8851613 126.40095,24.9954839 126.43215,25.0774194 C126.45425,25.1380645 126.46465,25.1941935 126.46855,25.2270968" id="Fill-21" fill="#FFF101"></path>
            <path d="M128.77085,33.3722581 C128.76045,33.3645161 128.74875,33.36 128.7377,33.3606452 C128.7273,33.3612903 128.71755,33.3651613 128.7117,33.3722581 C128.6974,33.3883871 128.69935,33.4141935 128.7169,33.4296774 L129.8934,34.5 C129.9103,34.5141935 129.93825,34.5148387 129.95125,34.5 C129.96555,34.483871 129.9636,34.4574194 129.9467,34.4425806 L128.77085,33.3722581" id="Fill-22" fill="#FFF101"></path>
            <path d="M129.8596,33.8980645 C129.8206,34.0167742 129.75885,34.1025806 129.71985,34.1490323 L129.9519,34.36 L130.2743,33.943871 L129.87585,33.5812903 C129.8999,33.6832258 129.8934,33.7916129 129.8596,33.8980645" id="Fill-23" fill="#FFF101"></path>
            <path d="M129.3136,32.8825806 C129.2993,32.8703226 129.2746,32.8709677 129.2616,32.8845161 C129.2473,32.9 129.2486,32.923871 129.26355,32.936129 L130.3419,33.9167742 C130.3588,33.9296774 130.38025,33.9270968 130.39195,33.9135484 C130.40625,33.8993548 130.4056,33.876129 130.39,33.8612903 L129.3136,32.8825806" id="Fill-24" fill="#FFF101"></path>
            <path d="M129.79785,33.8787097 C129.8375,33.756129 129.83555,33.6387097 129.79135,33.5296774 L129.7764,33.4909677 L129.73935,33.4574194 L129.6997,33.4451613 C129.58725,33.4122581 129.467,33.4212903 129.3487,33.4709677 C129.2434,33.5141935 129.1667,33.5806452 129.13225,33.6141935 L129.21285,33.6870968 C129.23755,33.6645161 129.2811,33.6270968 129.33895,33.5954839 C129.4488,33.5348387 129.56255,33.5187097 129.6698,33.5490323 L129.6763,33.5516129 L129.688,33.5645161 L129.6906,33.5683871 C129.74195,33.6974194 129.7088,33.82 129.6724,33.8987097 C129.64575,33.9580645 129.6126,34.0051613 129.5905,34.0316129 L129.67175,34.1051613 C129.72505,34.0406452 129.77055,33.9587097 129.79785,33.8787097" id="Fill-25" fill="#FFF101"></path>
            <path d="M128.85275,33.36 L129.08415,33.5703226 C129.1264,33.5290323 129.2083,33.46 129.3227,33.4116129 C129.42865,33.3677419 129.53655,33.3516129 129.63925,33.3670968 L129.24145,33.003871 L128.85275,33.36" id="Fill-26" fill="#FFF101"></path>
            <path d="M130.299,32.9703226 L130.1846,33.0935484 L130.10205,33.0187097 L130.21645,32.8954839 C130.23725,32.8735484 130.27365,32.8722581 130.2951,32.8916129 C130.3185,32.9135484 130.3198,32.9477419 130.299,32.9703226 Z M129.8674,33.1116129 L130.1131,33.3348387 L130.4771,32.9077419 L130.26325,32.7141935 L129.8674,33.1116129 L129.8674,33.1116129 Z" id="Fill-27" fill="#FFF101"></path>
            <path d="M129.61325,33.8722581 C129.6555,33.7780645 129.66265,33.6890323 129.63535,33.6070968 C129.5515,33.5870968 129.4605,33.6019355 129.3708,33.6522581 C129.32205,33.6793548 129.28305,33.7103226 129.2616,33.7322581 L129.54305,33.9877419 C129.56125,33.9632258 129.5905,33.9232258 129.61325,33.8722581" id="Fill-28" fill="#FFF101"></path>
            <path d="M130.2535,32.5903226 C130.2457,32.5987097 130.24635,32.6109677 130.2548,32.6187097 L130.5733,32.9090323 C130.58175,32.916129 130.59605,32.916129 130.60255,32.9077419 L130.7137,32.7870968 L130.6747,32.7516129 L130.61555,32.8154839 L130.49855,32.7090323 L130.55835,32.6458065 L130.52,32.6116129 L130.46085,32.6748387 L130.3445,32.5696774 L130.40365,32.5045161 L130.36465,32.4690323 L130.2535,32.5903226" id="Fill-29" fill="#FFF101"></path>
            <path d="M129.9974,32.7819355 C130.00585,32.7890323 130.01885,32.7883871 130.026,32.7806452 L130.1378,32.66 L130.09815,32.623871 L130.0403,32.6883871 L129.9233,32.5819355 L129.9818,32.5193548 L129.94345,32.483871 L129.8856,32.5483871 L129.76795,32.4419355 L129.82775,32.3780645 L129.78875,32.3419355 L129.67695,32.4632258 C129.6698,32.4709677 129.67045,32.483871 129.67825,32.4922581 L129.9974,32.7819355" id="Fill-30" fill="#FFF101"></path>
            <path d="M130.52455,33.3954839 C130.546,33.4167742 130.5473,33.4516129 130.52715,33.4741935 L130.442,33.5670968 L130.35945,33.4916129 L130.4446,33.3993548 C130.46475,33.3780645 130.5018,33.3767742 130.52455,33.3954839 Z M130.2522,33.4619355 L130.48165,33.6703226 L130.6539,33.4670968 L130.4407,33.2735484 L130.2522,33.4619355 L130.2522,33.4619355 Z" id="Fill-31" fill="#FFF101"></path>
            <path d="M130.75205,33.4670968 C130.75985,33.4748387 130.7722,33.4748387 130.78,33.4651613 L130.89115,33.3458065 L130.8528,33.3103226 L130.793,33.3735484 L130.67665,33.2677419 L130.7358,33.2051613 L130.6981,33.1696774 L130.63895,33.2335484 L130.5226,33.1277419 L130.5811,33.0632258 L130.54275,33.0283871 L130.4316,33.1483871 C130.42315,33.1567742 130.4238,33.1696774 130.4329,33.1767742 L130.75205,33.4670968" id="Fill-32" fill="#FFF101"></path>
            <path d="M129.3799,32.756129 C129.37015,32.7477419 129.3604,32.7445161 129.34935,32.7445161 C129.34025,32.7451613 129.3305,32.7483871 129.32465,32.7554839 C129.311,32.7703226 129.31295,32.7941935 129.32985,32.8096774 L130.4628,33.8406452 C130.47905,33.8548387 130.50375,33.8548387 130.5174,33.8406452 C130.53105,33.8251613 130.5291,33.8006452 130.5122,33.7864516 L129.3799,32.756129" id="Fill-33" fill="#FFF101"></path>
            <path d="M129.68865,32.8806452 L129.6061,32.8058065 L129.6906,32.7141935 C129.7114,32.6909677 129.74845,32.6896774 129.76925,32.7103226 C129.7803,32.7206452 129.7868,32.7341935 129.78745,32.7490323 C129.7881,32.763871 129.78355,32.7780645 129.77315,32.7896774 L129.68865,32.8806452 Z M129.68735,32.5870968 L129.49885,32.7754839 L129.727,32.983871 L129.90055,32.7819355 L129.68735,32.5870968 L129.68735,32.5870968 Z" id="Fill-34" fill="#FFF101"></path>
            <path d="M122.6329,33.0141935 L122.56855,32.9554839 L122.53345,32.9935484 L122.59845,33.0516129 L122.49185,33.1670968 L122.4275,33.1090323 L122.3911,33.1477419 L122.51265,33.2580645 C122.52045,33.2658065 122.5341,33.2651613 122.54125,33.2567742 L122.83375,32.94 C122.84155,32.9316129 122.8409,32.92 122.83245,32.9116129 L122.71155,32.8006452 L122.6758,32.8393548 L122.73885,32.8987097 L122.6329,33.0141935" id="Fill-35" fill="#FFF101"></path>
            <path d="M122.6342,33.7374194 C122.6537,33.7167742 122.69075,33.7148387 122.7135,33.7341935 L122.80645,33.8187097 L122.72975,33.9012903 L122.63745,33.816129 C122.6147,33.7954839 122.61275,33.7606452 122.6342,33.7374194 Z M122.9098,33.78 L122.70635,33.6083871 L122.51005,33.82 L122.7005,34.0077419 L122.9098,33.78 L122.9098,33.78 Z" id="Fill-36" fill="#FFF101"></path>
            <path d="M122.89615,33.2122581 L123.0203,33.3258065 L122.9449,33.4070968 L122.8201,33.2948387 C122.79865,33.2735484 122.7967,33.2393548 122.81685,33.2154839 C122.83765,33.1948387 122.87405,33.1929032 122.89615,33.2122581 Z M123.03785,33.6412903 L123.2634,33.3974194 L122.83375,33.036129 L122.6381,33.2477419 L123.03785,33.6412903 L123.03785,33.6412903 Z" id="Fill-37" fill="#FFF101"></path>
            <path d="M122.3638,33.7393548 L122.29945,33.6806452 L122.26305,33.72 L122.3846,33.8296774 C122.3924,33.8374194 122.40605,33.8367742 122.4132,33.8283871 L122.7057,33.5109677 C122.7135,33.5032258 122.71285,33.4909677 122.7044,33.4832258 L122.5835,33.3729032 L122.5471,33.4116129 L122.61145,33.4703226 L122.50485,33.5864516 L122.44115,33.5270968 L122.4054,33.5658065 L122.4704,33.6232258 L122.3638,33.7393548" id="Fill-38" fill="#FFF101"></path>
            <path d="M123.05475,32.9909677 L122.98975,32.9322581 L122.954,32.9716129 L123.07555,33.0819355 C123.084,33.0890323 123.097,33.0883871 123.10415,33.0806452 L123.396,32.763871 C123.40445,32.7548387 123.4038,32.7419355 123.3947,32.7354839 L123.27445,32.6245161 L123.2387,32.663871 L123.30305,32.7219355 L123.19515,32.8380645 L123.13145,32.7787097 L123.097,32.8174194 L123.16005,32.8754839 L123.05475,32.9909677" id="Fill-39" fill="#FFF101"></path>
            <path d="M123.4961,33.0703226 L123.4207,33.1522581 L123.32775,33.0683871 C123.31735,33.0587097 123.31085,33.0451613 123.3102,33.0290323 C123.3089,33.0154839 123.31475,33.0006452 123.3245,32.9896774 C123.3453,32.9670968 123.3817,32.9658065 123.4038,32.9870968 L123.4961,33.0703226 Z M123.20165,33.0716129 L123.39015,33.2587097 L123.60075,33.0316129 L123.396,32.86 L123.20165,33.0716129 L123.20165,33.0716129 Z" id="Fill-40" fill="#FFF101"></path>
            <path d="M123.74635,32.9870968 C123.7353,32.9877419 123.7249,32.9922581 123.71775,33.0006452 L122.67905,34.1251613 C122.66475,34.1419355 122.66475,34.1664516 122.67905,34.1806452 C122.694,34.1929032 122.72,34.1903226 122.7343,34.1754839 L123.77235,33.0503226 C123.78665,33.0341935 123.78665,33.0096774 123.77235,32.996129 C123.76585,32.9896774 123.75675,32.9870968 123.74635,32.9870968" id="Fill-41" fill="#FFF101"></path>
            <path d="M123.50065,34.4187097 C123.4584,34.3754839 123.3895,34.2948387 123.34075,34.1806452 C123.2959,34.0774194 123.2816,33.9696774 123.2946,33.8664516 L122.9306,34.2625806 L123.2881,34.6483871 L123.50065,34.4187097" id="Fill-42" fill="#FFF101"></path>
            <path d="M123.5117,33.6322581 C123.5455,33.6245161 123.57865,33.62 123.6131,33.6187097 C123.6846,33.6154839 123.75805,33.6264516 123.83085,33.6496774 C123.95045,33.6877419 124.0369,33.7496774 124.0837,33.7870968 L124.2956,33.5574194 L123.877,33.2367742 L123.5117,33.6322581" id="Fill-43" fill="#FFF101"></path>
            <path d="M124.41,33.5477419 C124.3983,33.5483871 124.3866,33.5541935 124.37815,33.5625806 L123.3011,34.7303226 C123.2855,34.7470968 123.2842,34.7735484 123.30045,34.7877419 C123.31605,34.8012903 123.3427,34.7987097 123.3583,34.7825806 L124.43665,33.6148387 C124.4516,33.5980645 124.4529,33.5722581 124.4373,33.5574194 C124.43015,33.5509677 124.4204,33.5470968 124.41,33.5477419" id="Fill-44" fill="#FFF101"></path>
            <path d="M123.66315,34.2425806 L123.92055,33.9632258 C123.89585,33.943871 123.85555,33.916129 123.80485,33.8935484 C123.7106,33.8509677 123.62025,33.8445161 123.5377,33.8709677 C123.51755,33.9554839 123.5325,34.0432258 123.58255,34.1335484 C123.60985,34.1819355 123.6417,34.22 123.66315,34.2425806" id="Fill-45" fill="#FFF101"></path>
            <path d="M123.8198,33.1103226 C123.8094,33.1109677 123.8016,33.1148387 123.7938,33.1219355 L122.80775,34.1903226 C122.7941,34.2051613 122.7954,34.2283871 122.8097,34.2425806 C122.824,34.2554839 122.8487,34.2541935 122.86235,34.24 L122.86365,34.2380645 L123.8484,33.1716129 C123.86205,33.1574194 123.86075,33.1335484 123.8458,33.1193548 C123.8393,33.1135484 123.82955,33.1103226 123.8198,33.1103226" id="Fill-46" fill="#FFF101"></path>
            <path d="M123.3869,33.7677419 L123.3752,33.8077419 C123.3414,33.92 123.34985,34.0374194 123.3999,34.156129 C123.43305,34.2329032 123.4857,34.3109677 123.54485,34.3709677 L123.61895,34.2903226 C123.59555,34.2658065 123.55785,34.2219355 123.52665,34.1651613 C123.48245,34.0896774 123.43955,33.9703226 123.4792,33.8380645 L123.4831,33.8283871 L123.4909,33.82 L123.4987,33.8167742 C123.6014,33.7767742 123.7158,33.7832258 123.8315,33.8341935 C123.8913,33.8612903 123.93875,33.8941935 123.9654,33.9141935 L124.03885,33.8348387 C124.0018,33.803871 123.92055,33.7451613 123.8107,33.7109677 C123.6885,33.6716129 123.56825,33.6735484 123.4584,33.716129 L123.4194,33.7316129 L123.3869,33.7677419" id="Fill-47" fill="#FFF101"></path>
            <path d="M129.961,24.0374194 C129.9597,24.0064516 129.98375,23.9806452 130.01495,23.9793548 C130.04485,23.9780645 130.0715,24.0012903 130.0728,24.0329032 L130.078,24.1567742 L129.9662,24.1612903 L129.961,24.0374194 Z M129.86935,24.216129 L130.1807,24.2025806 L130.1573,23.9367742 L129.8687,23.9496774 L129.86935,24.216129 L129.86935,24.216129 Z" id="Fill-48" fill="#FFF101"></path>
            <path d="M130.2639,23.3916129 L130.27105,23.5554839 C130.27105,23.5658065 130.28015,23.5741935 130.29185,23.5735484 L130.7241,23.5548387 C130.7358,23.5541935 130.74425,23.5451613 130.7436,23.5348387 L130.73645,23.3709677 L130.68315,23.3735484 L130.68705,23.4593548 L130.5291,23.4664516 L130.52585,23.38 L130.4745,23.3825806 L130.4784,23.4683871 L130.32045,23.4754839 L130.31655,23.3890323 L130.2639,23.3916129" id="Fill-49" fill="#FFF101"></path>
            <path d="M130.73125,24.9109677 C130.69485,24.8141935 130.63635,24.7464516 130.5577,24.7070968 C130.48425,24.7529032 130.4316,24.8258065 130.4043,24.9251613 C130.3887,24.9787097 130.3835,25.0277419 130.3835,25.0574194 L130.7644,25.0412903 C130.7605,25.0109677 130.75075,24.9632258 130.73125,24.9109677" id="Fill-50" fill="#FFF101"></path>
            <path d="M130.58175,23.9593548 L130.4693,23.963871 L130.4615,23.7967742 C130.46085,23.7664516 130.4849,23.74 130.51545,23.7387097 C130.54665,23.7374194 130.57265,23.7619355 130.57395,23.7916129 L130.58175,23.9593548 Z M130.6552,23.6225806 L130.36595,23.6354839 L130.36855,24.1941935 L130.70265,24.18 L130.6552,23.6225806 L130.6552,23.6225806 Z" id="Fill-51" fill="#FFF101"></path>
            <path d="M130.78715,23.6619355 L130.7943,23.8251613 C130.79495,23.836129 130.80405,23.8445161 130.8151,23.8445161 L131.248,23.8258065 C131.25905,23.8251613 131.26815,23.8154839 131.2675,23.8045161 L131.26035,23.6419355 L131.2064,23.643871 L131.2103,23.7296774 L131.053,23.736129 L131.0491,23.6509677 L130.99775,23.6529032 L131.00165,23.7387097 L130.8437,23.7458065 L130.84045,23.66 L130.78715,23.6619355" id="Fill-52" fill="#FFF101"></path>
            <path d="M129.76535,23.7064516 L129.7725,23.8696774 C129.77315,23.8806452 129.7829,23.8890323 129.79395,23.8883871 L130.22685,23.8696774 C130.2379,23.8696774 130.2457,23.86 130.2457,23.8490323 L130.23855,23.6858065 L130.1859,23.6883871 L130.1898,23.7741935 L130.03185,23.7806452 L130.02795,23.6948387 L129.97725,23.6974194 L129.9805,23.7825806 L129.82385,23.7896774 L129.81995,23.703871 L129.76535,23.7064516" id="Fill-53" fill="#FFF101"></path>
            <path d="M130.9828,23.9935484 C130.9815,23.9619355 131.0062,23.936129 131.03675,23.9348387 C131.06665,23.9335484 131.09265,23.9574194 131.09395,23.9883871 L131.0998,24.1122581 L130.98865,24.1174194 L130.9828,23.9935484 Z M130.8905,24.1716129 L131.20185,24.1580645 L131.1791,23.8929032 L130.88985,23.9051613 L130.8905,24.1716129 L130.8905,24.1716129 Z" id="Fill-54" fill="#FFF101"></path>
            <path d="M130.9243,24.756129 C130.9815,24.8670968 130.99905,24.9716129 131.00425,25.0309677 L131.31885,25.0174194 L131.24995,24.4974194 L130.71045,24.5206452 C130.7995,24.5748387 130.87165,24.6567742 130.9243,24.756129" id="Fill-55" fill="#FFF101"></path>
            <path d="M129.7738,24.3580645 L131.30845,24.2916129 C131.3312,24.2903226 131.34875,24.2735484 131.34745,24.2535484 C131.3468,24.2335484 131.32795,24.2174194 131.3052,24.2180645 L129.77055,24.2851613 C129.74845,24.2858065 129.73025,24.3032258 129.73155,24.323871 C129.7322,24.343871 129.7517,24.3587097 129.7738,24.3580645" id="Fill-56" fill="#FFF101"></path>
            <path d="M129.81735,24.4948387 L131.2766,24.4316129 C131.2974,24.4303226 131.313,24.4129032 131.31235,24.3929032 C131.31105,24.3735484 131.29415,24.3567742 131.27335,24.3574194 L129.81475,24.4206452 C129.79525,24.4219355 129.77965,24.44 129.7803,24.4593548 C129.78095,24.4793548 129.79785,24.4954839 129.81735,24.4948387" id="Fill-57" fill="#FFF101"></path>
            <path d="M129.78225,25.2264516 L131.37605,25.1574194 C131.4001,25.1567742 131.41895,25.1380645 131.4183,25.1174194 C131.41765,25.0954839 131.39685,25.0780645 131.3728,25.0793548 L129.779,25.1483871 C129.7556,25.1496774 129.73675,25.1677419 129.73805,25.1903226 C129.7387,25.2109677 129.7595,25.2277419 129.78225,25.2264516" id="Fill-58" fill="#FFF101"></path>
            <path d="M130.8294,25.0387097 L130.93925,25.0335484 C130.93405,24.9851613 130.91845,24.8877419 130.86645,24.7864516 C130.80665,24.6716129 130.7215,24.5890323 130.6136,24.5425806 L130.57525,24.5264516 L130.52585,24.5283871 L130.4888,24.5477419 C130.3848,24.603871 130.3081,24.6929032 130.2587,24.8122581 C130.2158,24.9180645 130.20865,25.0167742 130.208,25.0651613 L130.31785,25.0606452 C130.3185,25.0270968 130.3237,24.9703226 130.33995,24.9083871 C130.36465,24.8232258 130.4186,24.7083871 130.54145,24.6425806 L130.5512,24.6393548 L130.5655,24.64 L130.5694,24.6419355 C130.69745,24.6967742 130.7618,24.8064516 130.79235,24.8883871 C130.81575,24.9483871 130.8255,25.0051613 130.8294,25.0387097" id="Fill-59" fill="#FFF101"></path>
            <polyline id="Fill-60" fill="#FFF101" points="130.6266 24.5122581 130.6266 24.5122581 130.6266 24.5109677 130.6266 24.5122581"></polyline>
            <path d="M130.143,25.0683871 C130.143,25.0090323 130.15145,24.9032258 130.1989,24.7883871 C130.24115,24.683871 130.3068,24.5967742 130.39,24.5341935 L129.8505,24.5580645 L129.8284,25.0819355 L130.143,25.0683871" id="Fill-61" fill="#FFF101"></path>
            <path d="M121.54155,23.7696774 L121.5487,23.9329032 C121.54935,23.943871 121.55845,23.9522581 121.57015,23.9516129 L122.0024,23.9329032 C122.0128,23.9322581 122.02255,23.9232258 122.0219,23.9122581 L122.01475,23.7490323 L121.9608,23.7516129 L121.9647,23.8374194 L121.8074,23.8445161 L121.8035,23.7580645 L121.7528,23.7606452 L121.7567,23.8464516 L121.5981,23.8535484 L121.5942,23.7670968 L121.54155,23.7696774" id="Fill-62" fill="#FFF101"></path>
            <path d="M121.23995,24.4154839 C121.238,24.3845161 121.26205,24.3587097 121.29325,24.3567742 C121.32315,24.356129 121.34915,24.3793548 121.35045,24.4109677 L121.3563,24.5348387 L121.24515,24.5393548 L121.23995,24.4154839 Z M121.14765,24.5935484 L121.45835,24.5806452 L121.43625,24.3148387 L121.147,24.3277419 L121.14765,24.5935484 L121.14765,24.5935484 Z" id="Fill-63" fill="#FFF101"></path>
            <path d="M121.8594,24.3374194 L121.74825,24.3419355 L121.74045,24.1748387 C121.73915,24.1445161 121.7632,24.1180645 121.7931,24.1167742 C121.82495,24.1154839 121.85095,24.1393548 121.85225,24.1696774 L121.8594,24.3374194 Z M121.93415,24.0006452 L121.6449,24.0129032 L121.6475,24.5722581 L121.9803,24.5580645 L121.93415,24.0006452 L121.93415,24.0006452 Z" id="Fill-64" fill="#FFF101"></path>
            <path d="M122.00955,25.2890323 C121.9725,25.1922581 121.91465,25.1245161 121.836,25.0851613 C121.7619,25.1309677 121.70925,25.203871 121.68195,25.3032258 C121.6657,25.3567742 121.6618,25.4058065 121.66115,25.4354839 L122.0427,25.4193548 C122.0388,25.3890323 122.02905,25.3412903 122.00955,25.2890323" id="Fill-65" fill="#FFF101"></path>
            <path d="M122.2611,24.3716129 C122.2598,24.34 122.28385,24.3141935 122.3144,24.3129032 C122.34495,24.3116129 122.37095,24.3354839 122.37225,24.3664516 L122.37745,24.4903226 L122.2663,24.4954839 L122.2611,24.3716129 Z M122.1688,24.5496774 L122.48015,24.536129 L122.4574,24.2703226 L122.1675,24.2832258 L122.1688,24.5496774 L122.1688,24.5496774 Z" id="Fill-66" fill="#FFF101"></path>
            <path d="M122.0648,24.04 L122.07195,24.2032258 C122.07195,24.2141935 122.083,24.2225806 122.09405,24.2225806 L122.5263,24.203871 C122.5367,24.2032258 122.5458,24.1935484 122.5458,24.1825806 L122.53865,24.0193548 L122.48535,24.0219355 L122.48925,24.1077419 L122.3313,24.1141935 L122.3274,24.0290323 L122.27605,24.0309677 L122.27995,24.1167742 L122.122,24.1232258 L122.1181,24.0380645 L122.0648,24.04" id="Fill-67" fill="#FFF101"></path>
            <path d="M121.0443,24.0845161 L121.05145,24.2477419 C121.05145,24.2580645 121.0612,24.2670968 121.07225,24.2664516 L121.5045,24.2477419 C121.51555,24.2470968 121.52465,24.2380645 121.524,24.2270968 L121.51685,24.063871 L121.46355,24.0658065 L121.46745,24.1516129 L121.31015,24.1587097 L121.30625,24.0729032 L121.25425,24.0754839 L121.25815,24.1606452 L121.10085,24.1677419 L121.09695,24.0819355 L121.0443,24.0845161" id="Fill-68" fill="#FFF101"></path>
            <path d="M122.2026,25.1341935 C122.25915,25.2451613 122.2767,25.3496774 122.28255,25.4090323 L122.59585,25.3954839 L122.52825,24.8754839 L121.98875,24.8987097 C122.0778,24.9529032 122.1493,25.0322581 122.2026,25.1341935" id="Fill-69" fill="#FFF101"></path>
            <path d="M121.05145,24.736129 L122.5874,24.6696774 C122.60885,24.6683871 122.6264,24.6516129 122.62575,24.6316129 C122.6251,24.6116129 122.6056,24.5954839 122.58415,24.596129 L121.0482,24.6625806 C121.02675,24.663871 121.0092,24.6812903 121.00985,24.7019355 C121.0105,24.7212903 121.03,24.7367742 121.05145,24.736129" id="Fill-70" fill="#FFF101"></path>
            <path d="M121.0963,24.8722581 L122.55425,24.8096774 C122.5757,24.8083871 122.5913,24.7909677 122.59,24.7709677 C122.58935,24.7509677 122.57245,24.7348387 122.551,24.7354839 L121.09305,24.7987097 C121.0729,24.7993548 121.0573,24.8174194 121.0586,24.8374194 C121.05925,24.8574194 121.07615,24.8735484 121.0963,24.8722581" id="Fill-71" fill="#FFF101"></path>
            <path d="M122.10835,25.416129 L122.2169,25.4116129 C122.21235,25.3632258 122.19675,25.2651613 122.1441,25.163871 C122.08495,25.0490323 121.9998,24.9670968 121.89125,24.9206452 L121.8529,24.9045161 L121.8035,24.9064516 L121.7671,24.9258065 C121.6631,24.9819355 121.58575,25.0709677 121.537,25.1903226 C121.49345,25.2954839 121.4863,25.3948387 121.4863,25.4432258 L121.5955,25.4387097 C121.5968,25.4051613 121.6007,25.3483871 121.61825,25.2858065 C121.6436,25.2012903 121.69755,25.0864516 121.81845,25.0206452 L121.82885,25.0167742 L121.84315,25.0180645 L121.84835,25.0193548 C121.97575,25.0741935 122.03945,25.1845161 122.07,25.2664516 C122.0934,25.3270968 122.1038,25.3832258 122.10835,25.416129" id="Fill-72" fill="#FFF101"></path>
            <polyline id="Fill-73" fill="#FFF101" points="121.9049 24.8903226 121.9049 24.8903226 121.9049 24.8890323 121.9049 24.8903226"></polyline>
            <path d="M121.42065,25.4464516 C121.42065,25.3870968 121.42845,25.2812903 121.47655,25.1658065 C121.51945,25.06 121.58445,24.9748387 121.66765,24.9122581 L121.1275,24.936129 L121.1067,25.46 L121.42065,25.4464516" id="Fill-74" fill="#FFF101"></path>
            <path d="M121.06055,25.6045161 L122.6537,25.5354839 C122.6784,25.5341935 122.69725,25.516129 122.6966,25.4954839 C122.6953,25.4729032 122.6745,25.456129 122.65045,25.4574194 L121.0573,25.5264516 C121.03325,25.5277419 121.0157,25.5458065 121.017,25.5683871 C121.01765,25.5890323 121.0365,25.6058065 121.06055,25.6045161" id="Fill-75" fill="#FFF101"></path>
            <path d="M130.1547,28.4348387 C130.15275,28.403871 130.17745,28.3774194 130.208,28.376129 C130.2379,28.3748387 130.26455,28.3993548 130.26585,28.4296774 L130.2717,28.5541935 L130.1599,28.5593548 L130.1547,28.4348387 Z M130.0624,28.6129032 L130.37375,28.5993548 L130.351,28.3348387 L130.06175,28.3470968 L130.0624,28.6129032 L130.0624,28.6129032 Z" id="Fill-76" fill="#FFF101"></path>
            <path d="M130.45695,27.7890323 L130.4641,27.9522581 C130.46475,27.9632258 130.47385,27.9716129 130.4849,27.9716129 L130.9178,27.9522581 C130.9295,27.9522581 130.9373,27.9432258 130.9373,27.9316129 L130.9295,27.7683871 L130.87685,27.7709677 L130.88075,27.8567742 L130.7228,27.863871 L130.7189,27.7774194 L130.6682,27.78 L130.6721,27.8664516 L130.51415,27.8729032 L130.51025,27.7870968 L130.45695,27.7890323" id="Fill-77" fill="#FFF101"></path>
            <path d="M130.92495,29.3090323 C130.8879,29.2116129 130.83005,29.143871 130.7514,29.1051613 C130.67795,29.1503226 130.6253,29.2232258 130.59735,29.3225806 C130.58175,29.376129 130.5772,29.4245161 130.57655,29.4554839 L130.9581,29.4387097 C130.95355,29.4083871 130.94445,29.3606452 130.92495,29.3090323" id="Fill-78" fill="#FFF101"></path>
            <path d="M130.9802,28.0587097 L130.988,28.2225806 C130.98865,28.2329032 130.99775,28.2419355 131.0088,28.2412903 L131.44105,28.2225806 C131.45275,28.2219355 131.46185,28.2129032 131.4612,28.2025806 L131.45405,28.0380645 L131.4001,28.0406452 L131.404,28.1277419 L131.24605,28.1348387 L131.24215,28.0477419 L131.19145,28.0496774 L131.19535,28.1367742 L131.0374,28.143871 L131.0335,28.056129 L130.9802,28.0587097" id="Fill-79" fill="#FFF101"></path>
            <path d="M131.1765,28.3903226 C131.1752,28.36 131.19925,28.3335484 131.23045,28.3322581 C131.2597,28.3309677 131.28635,28.3548387 131.28765,28.3858065 L131.29285,28.5096774 L131.1817,28.5148387 L131.1765,28.3903226 Z M131.08355,28.5683871 L131.3949,28.5548387 L131.3728,28.2903226 L131.08355,28.3025806 L131.08355,28.5683871 L131.08355,28.5683871 Z" id="Fill-80" fill="#FFF101"></path>
            <path d="M129.95905,28.1032258 L129.9662,28.2670968 C129.96685,28.2774194 129.97595,28.2858065 129.98765,28.2858065 L130.4199,28.2670968 C130.43095,28.2664516 130.4394,28.2567742 130.43875,28.2464516 L130.4316,28.0825806 L130.37895,28.0845161 L130.38285,28.1722581 L130.22555,28.1787097 L130.22165,28.0916129 L130.1703,28.0941935 L130.1742,28.1812903 L130.0169,28.1877419 L130.013,28.1006452 L129.95905,28.1032258" id="Fill-81" fill="#FFF101"></path>
            <path d="M130.7748,28.356129 L130.66235,28.3612903 L130.6552,28.1941935 C130.6539,28.163871 130.6786,28.1374194 130.7085,28.136129 C130.74035,28.1341935 130.76635,28.1587097 130.76765,28.1890323 L130.7748,28.356129 Z M130.8489,28.0206452 L130.55965,28.0335484 L130.56225,28.5916129 L130.8957,28.5767742 L130.8489,28.0206452 L130.8489,28.0206452 Z" id="Fill-82" fill="#FFF101"></path>
            <path d="M129.9675,28.7554839 L131.50215,28.6890323 C131.5249,28.6883871 131.5418,28.6709677 131.54115,28.6503226 C131.5405,28.6309677 131.52165,28.6141935 131.4989,28.6154839 L129.96425,28.6819355 C129.94215,28.6825806 129.92395,28.7006452 129.9246,28.7206452 C129.92525,28.7412903 129.9454,28.7567742 129.9675,28.7554839" id="Fill-83" fill="#FFF101"></path>
            <path d="M131.118,29.1541935 C131.17455,29.2645161 131.1921,29.3683871 131.19795,29.4283871 L131.51255,29.4148387 L131.44365,28.8935484 L130.90415,28.9174194 C130.99255,28.9722581 131.06535,29.0535484 131.118,29.1541935" id="Fill-84" fill="#FFF101"></path>
            <path d="M130.01105,28.8916129 L131.46965,28.8283871 C131.4911,28.8277419 131.50605,28.8109677 131.5054,28.7903226 C131.50475,28.7703226 131.48785,28.7548387 131.46705,28.7554839 L130.00845,28.8187097 C129.9883,28.82 129.9727,28.8367742 129.974,28.8567742 C129.97465,28.8774194 129.99155,28.8922581 130.01105,28.8916129" id="Fill-85" fill="#FFF101"></path>
            <path d="M129.97595,29.6245161 L131.56975,29.5548387 C131.5938,29.5541935 131.61265,29.5354839 131.612,29.5141935 C131.6107,29.4929032 131.5899,29.4767742 131.5665,29.4774194 L129.9727,29.5464516 C129.9493,29.5477419 129.93045,29.5658065 129.93175,29.5870968 C129.9324,29.6083871 129.95255,29.6251613 129.97595,29.6245161" id="Fill-86" fill="#FFF101"></path>
            <polyline id="Fill-87" fill="#FFF101" points="130.8203 28.9090323 130.8203 28.9090323 130.8203 28.9083871 130.8203 28.9090323"></polyline>
            <path d="M130.33605,29.4658065 C130.33605,29.4058065 130.34515,29.3006452 130.39195,29.1851613 C130.4342,29.0806452 130.5005,28.9935484 130.58305,28.9309677 L130.04355,28.9541935 L130.02145,29.4793548 L130.33605,29.4658065" id="Fill-88" fill="#FFF101"></path>
            <path d="M131.0231,29.436129 L131.1323,29.4309677 C131.12775,29.3832258 131.11215,29.2858065 131.0595,29.183871 C130.9997,29.0683871 130.9152,28.9864516 130.8073,28.94 L130.7683,28.9225806 L130.7189,28.9251613 L130.6825,28.9458065 C130.5785,29.0012903 130.50115,29.0896774 130.4524,29.2103226 C130.4095,29.316129 130.40235,29.4141935 130.4017,29.4632258 L130.51155,29.4580645 C130.51155,29.4245161 130.51675,29.3677419 130.53365,29.3051613 C130.55835,29.2206452 130.6123,29.1064516 130.73515,29.0406452 L130.74165,29.0367742 L130.7566,29.036129 L130.7631,29.0393548 C130.89115,29.0941935 130.95485,29.2032258 130.98605,29.2858065 C131.00945,29.3458065 131.01855,29.4025806 131.0231,29.436129" id="Fill-89" fill="#FFF101"></path>
            <path d="M121.2432,28.4864516 L121.25035,28.6445161 C121.25035,28.6516129 121.25685,28.6587097 121.2653,28.6580645 L121.69755,28.6393548 C121.706,28.6393548 121.7125,28.6316129 121.71185,28.6245161 L121.70535,28.4664516 L121.6631,28.4683871 L121.667,28.5548387 L121.498,28.5625806 L121.4941,28.4754839 L121.4538,28.4774194 L121.4577,28.563871 L121.28805,28.5716129 L121.28415,28.4845161 L121.2432,28.4864516" id="Fill-90" fill="#FFF101"></path>
            <path d="M122.2,29.3006452 C122.28255,29.3554839 122.35275,29.4335484 122.40085,29.5290323 C122.4561,29.6374194 122.47495,29.74 122.4808,29.8 L122.7824,29.7870968 L122.7174,29.2787097 L122.2,29.3006452" id="Fill-91" fill="#FFF101"></path>
            <path d="M121.4265,28.8129032 C121.4252,28.7793548 121.45185,28.7509677 121.48565,28.7496774 C121.51945,28.7477419 121.5487,28.7735484 121.55,28.8077419 L121.55585,28.9380645 L121.43235,28.9432258 L121.4265,28.8129032 Z M121.34655,28.9858065 L121.6449,28.9729032 L121.6241,28.7187097 L121.3446,28.7309677 L121.34655,28.9858065 L121.34655,28.9858065 Z" id="Fill-92" fill="#FFF101"></path>
            <path d="M122.26435,28.4425806 L122.2715,28.6006452 C122.27215,28.6077419 122.27865,28.6141935 122.28645,28.6135484 L122.7187,28.5954839 C122.7278,28.5948387 122.73365,28.5877419 122.73365,28.5806452 L122.7265,28.4219355 L122.68425,28.423871 L122.68815,28.5109677 L122.51915,28.5180645 L122.5159,28.4309677 L122.4756,28.4329032 L122.4795,28.52 L122.30985,28.5270968 L122.3066,28.4406452 L122.26435,28.4425806" id="Fill-93" fill="#FFF101"></path>
            <path d="M122.1974,29.6883871 C122.16165,29.5941935 122.10575,29.5270968 122.0297,29.4890323 C121.9582,29.5335484 121.90815,29.6051613 121.8802,29.7019355 C121.8659,29.7509677 121.86135,29.7967742 121.8594,29.8270968 L122.22925,29.8109677 C122.22535,29.7812903 122.2156,29.736129 122.1974,29.6883871" id="Fill-94" fill="#FFF101"></path>
            <path d="M122.4483,28.7683871 C122.44635,28.7348387 122.47365,28.7064516 122.50745,28.7051613 C122.54125,28.703871 122.5705,28.7296774 122.5718,28.7632258 L122.57765,28.8935484 L122.45415,28.8987097 L122.4483,28.7683871 Z M122.36835,28.9412903 L122.6667,28.9283871 L122.64525,28.6741935 L122.3677,28.6864516 L122.36835,28.9412903 L122.36835,28.9412903 Z" id="Fill-95" fill="#FFF101"></path>
            <path d="M122.05895,28.7406452 L121.9361,28.7458065 L121.9283,28.5729032 C121.927,28.5380645 121.95365,28.5096774 121.9868,28.5083871 C122.02125,28.5064516 122.0492,28.5329032 122.05115,28.5677419 L122.05895,28.7406452 Z M122.12265,28.403871 L121.8438,28.4154839 L121.84575,28.9645161 L122.1675,28.9503226 L122.12265,28.403871 L122.12265,28.403871 Z" id="Fill-96" fill="#FFF101"></path>
            <path d="M121.7411,28.1722581 L121.74825,28.3296774 C121.74825,28.3380645 121.7554,28.3432258 121.76255,28.3432258 L122.19545,28.3245161 C122.20325,28.323871 122.2104,28.3180645 122.2104,28.3096774 L122.20325,28.1522581 L122.161,28.1541935 L122.1649,28.24 L121.99525,28.2470968 L121.992,28.1612903 L121.9517,28.1632258 L121.9556,28.2490323 L121.78595,28.2567742 L121.78205,28.1703226 L121.7411,28.1722581" id="Fill-97" fill="#FFF101"></path>
            <path d="M121.28935,29.2645161 L122.7473,29.2012903 C122.7655,29.2006452 122.77915,29.1858065 122.77785,29.1677419 C122.7772,29.1516129 122.7629,29.1380645 122.7447,29.1387097 L121.28675,29.2019355 C121.26985,29.2025806 121.25555,29.2174194 121.25685,29.2341935 C121.2575,29.2516129 121.2731,29.2651613 121.28935,29.2645161" id="Fill-98" fill="#FFF101"></path>
            <path d="M121.2445,29.1277419 L122.78045,29.0612903 C122.7993,29.0606452 122.81425,29.0458065 122.8136,29.0283871 C122.81295,29.0116129 122.7967,28.9987097 122.77785,28.9993548 L121.2419,29.0658065 C121.2237,29.0670968 121.20875,29.0812903 121.2094,29.0980645 C121.21005,29.1154839 121.2263,29.1283871 121.2445,29.1277419" id="Fill-99" fill="#FFF101"></path>
            <path d="M121.6085,29.8380645 C121.60915,29.7780645 121.61825,29.6735484 121.66505,29.5612903 C121.70535,29.4619355 121.7671,29.3780645 121.8451,29.316129 L121.3277,29.3387097 L121.30625,29.8516129 L121.6085,29.8380645" id="Fill-100" fill="#FFF101"></path>
            <path d="M121.2536,29.9954839 L122.84675,29.9264516 C122.86885,29.9258065 122.8851,29.9103226 122.88445,29.8922581 C122.8838,29.8735484 122.8656,29.86 122.84415,29.8612903 L121.251,29.9303226 C121.23085,29.9309677 121.21395,29.9464516 121.21525,29.9645161 C121.2159,29.9825806 121.23345,29.9967742 121.2536,29.9954839" id="Fill-101" fill="#FFF101"></path>
            <path d="M122.30595,29.8077419 L122.4041,29.803871 C122.3989,29.7541935 122.38135,29.6606452 122.3326,29.5645161 C122.27475,29.4509677 122.1896,29.3696774 122.083,29.3232258 L122.04595,29.3077419 L121.99915,29.3096774 L121.9634,29.3283871 C121.8607,29.383871 121.784,29.4722581 121.7359,29.5903226 C121.6943,29.6903226 121.68585,29.7845161 121.68455,29.8348387 L121.784,29.8303226 C121.7853,29.7967742 121.7892,29.7419355 121.8074,29.6812903 C121.83145,29.596129 121.8867,29.48 122.00955,29.4135484 L122.01735,29.4090323 L122.03555,29.4083871 L122.044,29.4122581 C122.1727,29.4677419 122.23835,29.5787097 122.2689,29.6612903 C122.29165,29.72 122.30205,29.7741935 122.30595,29.8077419" id="Fill-102" fill="#FFF101"></path>
            <path d="M129.5021,25.4174194 L129.7218,30.4058065 C129.8037,32.2735484 128.40425,33.8522581 126.59465,33.9303226 C124.7857,34.0090323 123.2517,32.5580645 123.16915,30.6896774 L122.9501,25.7012903 L129.5021,25.4174194" id="Fill-103" fill="#FFFFFF"></path>
            <path d="M126.97685,26.3470968 L127.023,27.4032258 C127.04055,27.7974194 126.73505,28.1316129 126.3405,28.1483871 C125.9453,28.1658065 125.6125,27.8593548 125.59495,27.4645161 L125.5488,26.4090323 L126.97685,26.3470968" id="Fill-104" fill="#2A295A"></path>
            <path d="M125.8829,26.6374194 C125.8023,26.6406452 125.74055,26.7077419 125.7438,26.7877419 C125.7477,26.8664516 125.81465,26.9277419 125.8959,26.923871 C125.9752,26.9206452 126.0376,26.8535484 126.03435,26.7748387 C126.03045,26.6948387 125.96285,26.6335484 125.8829,26.6374194 Z M126.69735,27.3774194 C126.61805,27.3812903 126.5563,27.4490323 126.55955,27.5277419 C126.5628,27.6077419 126.63105,27.6690323 126.7097,27.6658065 C126.7903,27.6625806 126.8527,27.5948387 126.8488,27.5154839 C126.84555,27.4367742 126.7773,27.3741935 126.69735,27.3774194 Z M125.91735,27.4116129 C125.8361,27.4148387 125.77435,27.4832258 125.77825,27.5612903 C125.7815,27.6412903 125.8491,27.7032258 125.9297,27.6993548 C126.00965,27.696129 126.0714,27.6283871 126.06815,27.5490323 C126.0649,27.4703226 125.99665,27.4083871 125.91735,27.4116129 Z M126.6759,26.8903226 C126.75585,26.8864516 126.81825,26.82 126.815,26.7412903 C126.8111,26.6612903 126.7435,26.6 126.66355,26.6032258 C126.58425,26.6070968 126.52185,26.6735484 126.52575,26.7535484 C126.529,26.8322581 126.5966,26.8935484 126.6759,26.8903226 Z M126.28915,26.9967742 C126.2105,27.0006452 126.1481,27.0670968 126.15135,27.1470968 C126.15525,27.2264516 126.22285,27.2877419 126.30215,27.2845161 C126.38275,27.2812903 126.4445,27.2141935 126.44125,27.1341935 C126.43735,27.0548387 126.3704,26.9935484 126.28915,26.9967742 L126.28915,26.9967742 Z" id="Fill-105" fill="#FFFFFF"></path>
            <path d="M127.08605,28.8212903 L127.1322,29.876129 C127.14975,30.2716129 126.8436,30.6051613 126.44905,30.6219355 C126.05385,30.6393548 125.7217,30.3335484 125.70415,29.9380645 L125.65735,28.8825806 L127.08605,28.8212903" id="Fill-106" fill="#2A295A"></path>
            <path d="M125.9921,29.1109677 C125.91085,29.1141935 125.8491,29.1812903 125.853,29.2612903 C125.85625,29.3406452 125.92385,29.4019355 126.00445,29.3987097 C126.0844,29.3948387 126.14615,29.3277419 126.1429,29.2483871 C126.13965,29.1690323 126.0714,29.1070968 125.9921,29.1109677 Z M126.8059,29.8509677 C126.72725,29.8548387 126.66485,29.9219355 126.6681,30.0019355 C126.672,30.0806452 126.7396,30.1419355 126.8189,30.1387097 C126.89885,30.1354839 126.96125,30.0683871 126.958,29.9890323 C126.9541,29.9096774 126.8865,29.8477419 126.8059,29.8509677 Z M126.0259,29.8851613 C125.9453,29.8883871 125.88355,29.956129 125.8868,30.0354839 C125.89005,30.1148387 125.95765,30.176129 126.03825,30.1722581 C126.1182,30.1690323 126.1806,30.1019355 126.17735,30.0232258 C126.17345,29.9432258 126.10585,29.8812903 126.0259,29.8851613 Z M126.78445,29.3645161 C126.86505,29.3612903 126.92745,29.2941935 126.92355,29.2148387 C126.9203,29.1348387 126.85205,29.0735484 126.7721,29.0767742 C126.6928,29.0806452 126.6304,29.1477419 126.6343,29.2270968 C126.63755,29.3064516 126.70515,29.3683871 126.78445,29.3645161 Z M126.39835,29.4703226 C126.31905,29.4741935 126.25665,29.5406452 126.26055,29.6206452 C126.2638,29.6993548 126.3314,29.7612903 126.4107,29.7580645 C126.49195,29.7541935 126.5537,29.6870968 126.5498,29.6083871 C126.54655,29.5283871 126.47895,29.4670968 126.39835,29.4703226 L126.39835,29.4703226 Z" id="Fill-107" fill="#FFFFFF"></path>
            <path d="M129.0783,28.7348387 L129.1251,29.7903226 C129.142,30.1851613 128.83715,30.5187097 128.4426,30.5354839 C128.0487,30.5529032 127.7133,30.2470968 127.69575,29.8516129 L127.6496,28.7967742 L129.0783,28.7348387" id="Fill-108" fill="#2A295A"></path>
            <path d="M127.98435,29.0245161 C127.90505,29.0277419 127.842,29.0954839 127.84525,29.1748387 C127.84915,29.2541935 127.9174,29.3154839 127.99735,29.3122581 C128.07665,29.3090323 128.1397,29.2412903 128.1358,29.1625806 C128.13255,29.0825806 128.0643,29.0206452 127.98435,29.0245161 Z M128.8001,29.7651613 C128.72015,29.7683871 128.65775,29.8354839 128.661,29.9154839 C128.66425,29.9948387 128.7325,30.056129 128.81245,30.0522581 C128.8924,30.0490323 128.95415,29.9819355 128.9509,29.9025806 C128.94765,29.8232258 128.88005,29.7612903 128.8001,29.7651613 Z M128.0188,29.7987097 C127.93885,29.8019355 127.8758,29.8696774 127.8797,29.9490323 C127.88295,30.0283871 127.9512,30.0896774 128.03115,30.0864516 C128.11045,30.0825806 128.1735,30.0154839 128.17025,29.9367742 C128.16635,29.8567742 128.0981,29.7954839 128.0188,29.7987097 Z M128.77865,29.2787097 C128.8586,29.2748387 128.92035,29.2077419 128.9171,29.1283871 C128.9132,29.0483871 128.8456,28.9870968 128.76565,28.9903226 C128.68635,28.9935484 128.6233,29.0612903 128.62655,29.1406452 C128.63045,29.22 128.6987,29.2819355 128.77865,29.2787097 Z M128.3919,29.383871 C128.3113,29.3877419 128.24955,29.4548387 128.2528,29.5341935 C128.2567,29.6129032 128.32365,29.6748387 128.4049,29.6716129 C128.48355,29.6683871 128.54595,29.6006452 128.5427,29.5219355 C128.53945,29.4419355 128.4712,29.3806452 128.3919,29.383871 L128.3919,29.383871 Z" id="Fill-109" fill="#FFFFFF"></path>
            <path d="M125.0925,28.9070968 L125.1393,29.9625806 C125.1562,30.3580645 124.85005,30.6916129 124.45615,30.7083871 C124.0616,30.7258065 123.72685,30.42 123.70995,30.0245161 L123.66315,28.9690323 L125.0925,28.9070968" id="Fill-110" fill="#2A295A"></path>
            <path d="M123.99855,29.1967742 C123.9186,29.2006452 123.8562,29.2677419 123.85945,29.3477419 C123.86335,29.4264516 123.93095,29.4883871 124.01155,29.4851613 C124.09085,29.4812903 124.15325,29.4141935 124.15,29.3348387 C124.1461,29.2554839 124.0785,29.1935484 123.99855,29.1967742 Z M124.81365,29.9374194 C124.73435,29.9412903 124.6726,30.0083871 124.6765,30.0877419 C124.67975,30.1670968 124.7467,30.2283871 124.826,30.2251613 C124.9066,30.2212903 124.969,30.1548387 124.9651,30.0754839 C124.96185,29.996129 124.8936,29.9341935 124.81365,29.9374194 Z M124.033,29.9716129 C123.9524,29.9748387 123.89,30.0425806 123.8939,30.1219355 C123.89715,30.2012903 123.9654,30.2625806 124.04535,30.2587097 C124.1253,30.2554839 124.18705,30.1883871 124.1838,30.1096774 C124.18055,30.0296774 124.1123,29.9677419 124.033,29.9716129 Z M124.7922,29.4509677 C124.8728,29.4477419 124.93455,29.38 124.9313,29.3012903 C124.9274,29.2212903 124.8598,29.16 124.7792,29.1632258 C124.70055,29.1664516 124.6388,29.2341935 124.64205,29.3135484 C124.64595,29.3929032 124.7129,29.4548387 124.7922,29.4509677 Z M124.40545,29.5567742 C124.32485,29.56 124.2631,29.6270968 124.267,29.7070968 C124.27025,29.7858065 124.3372,29.8477419 124.41845,29.8445161 C124.4984,29.8406452 124.5595,29.7735484 124.55625,29.6948387 C124.553,29.6148387 124.48605,29.5535484 124.40545,29.5567742 L124.40545,29.5567742 Z" id="Fill-111" fill="#FFFFFF"></path>
            <path d="M127.1946,31.2954839 L127.24075,32.3496774 C127.2583,32.7451613 126.9528,33.0787097 126.5576,33.096129 C126.16305,33.1135484 125.83025,32.8064516 125.8127,32.4116129 L125.76655,31.3574194 L127.1946,31.2954839" id="Fill-112" fill="#2A295A"></path>
            <path d="M126.10065,31.583871 C126.02005,31.5877419 125.9583,31.6548387 125.96155,31.7348387 C125.96545,31.8141935 126.0324,31.8748387 126.113,31.8716129 C126.19295,31.8677419 126.25535,31.8012903 126.2521,31.7219355 C126.2482,31.6425806 126.17995,31.5806452 126.10065,31.583871 Z M126.9151,32.3245161 C126.8358,32.3283871 126.7734,32.396129 126.7773,32.4754839 C126.78055,32.5548387 126.84815,32.6167742 126.92745,32.6129032 C127.00805,32.6096774 127.0698,32.5425806 127.06655,32.4625806 C127.0633,32.3832258 126.99505,32.3212903 126.9151,32.3245161 Z M126.13445,32.3587097 C126.05385,32.3619355 125.9921,32.4296774 125.996,32.5090323 C125.99925,32.5890323 126.0662,32.6503226 126.14745,32.6470968 C126.22675,32.643871 126.28915,32.576129 126.2859,32.496129 C126.28265,32.4174194 126.2144,32.3554839 126.13445,32.3587097 Z M126.89365,31.8374194 C126.9736,31.8341935 127.036,31.7677419 127.03275,31.6883871 C127.02885,31.6083871 126.96125,31.5464516 126.88065,31.5503226 C126.80135,31.5535484 126.7396,31.6206452 126.74285,31.7006452 C126.74675,31.7806452 126.81435,31.8412903 126.89365,31.8374194 Z M126.5069,31.9445161 C126.4276,31.9477419 126.36585,32.0148387 126.3691,32.0941935 C126.373,32.1735484 126.4406,32.2354839 126.5199,32.2316129 C126.6005,32.2283871 126.66225,32.1612903 126.65835,32.0819355 C126.6551,32.0019355 126.58815,31.9412903 126.5069,31.9445161 L126.5069,31.9445161 Z" id="Fill-113" fill="#FFFFFF"></path>
            <path d="M220.8661,49.8754839 C217.3951,49.7012903 215.4113,45.623871 215.65375,41.456129 C216.0795,34.1129032 222.26295,26.7006452 222.26295,26.7006452 C223.7066,28.0083871 228.0486,35.0948387 227.81265,40.5180645 C227.58255,45.8148387 224.33515,50.0496774 220.8661,49.8754839 Z M224.9975,24.2612903 C226.4899,22.5354839 227.51365,21.5296774 227.2829,20.3341935 C227.05345,19.1374194 222.9708,18.3070968 221.1547,19.9716129 C215.78115,15.7393548 216.88095,20.6974194 217.659,21.8025806 C211.3111,26.2335484 207.01655,37.896129 210.47195,46.996129 C213.84935,55.8922581 224.0381,56.9896774 229.38045,50.7380645 C234.1105,45.2019355 233.26615,35.0251613 224.9975,24.2612903 L224.9975,24.2612903 Z" id="Fill-114" fill="#FFFFFE"></path>
            <path d="M26.03055,6.57483871 C14.0556,5.71419355 0.82095,15.5587097 1.3273,28.3083871 C1.3754,29.5322581 2.41865,30.6535484 3.9156,30.6535484 C5.7681,30.6535484 11.19235,30.4496774 11.19235,30.4496774 C11.19235,30.4496774 0.48945,38.8245161 0.48945,48.6316129 C0.48945,53.8058065 4.39985,60.0032258 12.5645,60.0032258 C24.0071,60.0032258 32.5364,50.7051613 32.52015,42.8283871 C32.5195,42.2283871 31.82595,41.3825806 30.70795,42.7277419 C28.93475,44.8619355 19.42525,54.5554839 10.02625,54.5554839 C6.8705,54.5554839 4.1262,52.7845161 4.1262,49.04 C4.1262,44.1367742 11.94765,34.6025806 25.3942,30.8574194 C28.68775,29.9045161 28.9614,25.3419355 24.7767,25.1374194 C20.66285,24.9367742 6.4584,26.4993548 5.42945,26.4993548 C4.39985,26.4993548 4.30755,26.2787097 4.6748,25.3419355 C5.15515,24.1154839 10.36945,15.0587097 26.0117,13.3567742 C31.2949,12.9477419 30.7645,6.91612903 26.03055,6.57483871" id="Fill-115" fill="#FFFFFE"></path>
            <path d="M42.96175,21.4664516 C42.96175,18.3870968 38.3539,16.4954839 36.61775,20.856129 C33.2748,29.2529032 32.2595,54.6954839 43.4473,54.6954839 C48.3587,54.6948387 54.62665,44.0129032 54.62665,33.5858065 C54.62665,24.9870968 51.0796,19.3664516 50.32885,18.3522581 C49.57875,17.336129 48.55565,17.8780645 48.69215,19.7748387 C48.82865,21.6690323 49.374,39.2051613 43.84835,45.5709677 C41.66565,47.9393548 40.0569,45.4716129 39.8242,43.1335484 C39.1417,36.2941935 42.96175,25.9348387 42.96175,21.4664516" id="Fill-116" fill="#FFFFFE"></path>
            <path d="M94.0901,48.7948387 C90.948,48.7948387 89.20275,44.7677419 89.20275,40.3935484 C89.20275,32.6858065 94.78755,25.6722581 94.78755,25.6722581 C96.3235,27.616129 100.0233,33.1019355 100.0233,38.6567742 C100.0233,44.2129032 97.2296,48.7948387 94.0901,48.7948387 Z M96.603,23.2419355 C96.603,23.2419355 98.37815,20.8490323 97.30955,19.4980645 C96.109,17.9767742 92.26035,17.5019355 88.6548,21.5109677 C83.90785,26.7883871 80.5818,37.9245161 84.1776,47.2670968 C87.61415,56.2 97.23805,56.9548387 101.6977,50.1845161 C105.67635,44.1419355 104.62985,34.0741935 96.603,23.2419355 L96.603,23.2419355 Z" id="Fill-117" fill="#FFFFFE"></path>
            <path d="M65.03445,32.3554839 C65.30875,28.8832258 65.58305,25.2735484 65.58305,25.2735484 C65.5837,25.2735484 73.40515,23.2980645 76.0799,23.5716129 C78.4095,23.8083871 78.8931,24.7967742 77.70685,26.6245161 C74.9138,30.9283871 68.49245,32.4180645 65.03445,32.3554839 Z M81.82395,55.3870968 C78.47775,50.7780645 74.27615,41.5509677 67.84765,35.9651613 C74.3652,35.5567742 82.5292,30.5180645 82.5292,25.1374194 C82.5292,21.1535484 78.3536,18.2825806 72.9339,18.2825806 C67.5142,18.2825806 61.5355,20.0987097 59.27155,21.46 C56.3212,23.1625806 58.5169,27.18 61.26185,26.0916129 C61.26185,26.0916129 60.23225,30.8574194 59.95795,33.3774194 C57.7291,33.103871 57.28125,33.5129032 57.41905,33.9903226 C57.55685,34.4664516 58.5169,34.8754839 59.61475,36.2380645 C59.27155,39.2335484 58.6638,52.5574194 58.80095,53.7154839 C58.9394,54.8819355 59.64725,55.0825806 60.65345,53.8516129 C61.54525,52.7625806 63.45625,50.1290323 64.34805,40.1877419 C65.37765,41.0716129 68.1902,44.8122581 71.6209,49.176129 C76.65255,55.5774194 78.31135,56.0387097 80.37835,56.76 C81.4931,57.1509677 82.64295,56.5154839 81.82395,55.3870968 L81.82395,55.3870968 Z" id="Fill-118" fill="#FFFFFE"></path>
            <path d="M165.1871,19.1664516 C165.3691,26.0870968 159.2383,37.0916129 158.8457,45.123871 C158.5584,50.9793548 159.61595,53.3483871 160.11905,54.1193548 C160.64425,54.9270968 161.7954,54.9967742 162.10285,53.5283871 C163.02,49.1406452 169.3328,37.5748387 170.14205,28.2741935 C170.638,22.5729032 168.85635,19.0845161 166.8056,18.4245161 C165.8904,18.1303226 165.16175,18.2412903 165.1871,19.1664516" id="Fill-119" fill="#FFFFFE"></path>
            <path d="M188.05345,18.2825806 C179.4754,18.2825806 173.2887,21.3012903 173.2887,28.156129 C173.2887,32.3787097 176.4438,35.283871 181.47545,36.1012903 C184.40305,36.6458065 187.252,36.8593548 188.29005,37.236129 C190.16725,37.916129 185.67445,40.0625806 178.6824,44.7690323 C173.90555,47.9845161 170.41635,51.3825806 168.55215,54.9903226 C167.90605,56.2387097 168.77965,57.4316129 170.13035,56.5090323 C172.7518,54.7167742 178.4978,51.7303226 184.07285,48.6858065 C189.37815,45.7883871 194.37535,42.6051613 194.37535,38.643871 C194.37535,35.0567742 191.6629,33.7045161 189.5712,33.4677419 C185.95785,33.06 178.1364,33.3774194 178.1364,28.8832258 C178.13705,27.2032258 180.3776,25.0012903 187.58155,25.0012903 C193.13905,25.0012903 192.57875,18.2825806 188.05345,18.2825806" id="Fill-120" fill="#FFFFFE"></path>
            <path d="M198.85515,19.5322581 C201.66185,24.88 196.88565,39.4270968 196.88565,44.9541935 C196.88565,50.4812903 197.51225,52.4290323 198.98645,54.2206452 C199.7398,55.1380645 200.7291,54.5877419 200.82075,53.5974194 C201.2777,48.7251613 206.5505,35.503871 206.89045,29.36 C207.3253,21.5341935 203.4318,18.5019355 201.15095,18.3109677 C199.88735,18.2045161 198.21555,18.4309677 198.85515,19.5322581" id="Fill-121" fill="#FFFFFE"></path>
            <path d="M200.7863,11.9864516 C200.6433,17.0825806 209.2064,17.9051613 209.2064,11.6748387 C209.2064,6.24516129 204.62975,1.75419355 203.71065,1.00645161 C202.28195,-0.149677419 200.26175,0.0593548387 200.73755,1.9283871 C201.8328,5.84516129 200.83505,10.2058065 200.7863,11.9864516" id="Fill-122" fill="#FFFFFE"></path>
            <path d="M259.53135,54.1658065 C258.41205,47.3212903 259.95125,38.5135484 259.95125,30.2141935 C259.95125,23.8787097 254.6466,20.6212903 251.49865,20.6212903 C247.40885,20.6212903 244.9798,22.4509677 244.9798,22.4509677 C245.02595,21.2458065 245.23525,19.3903226 245.1969,18.8058065 C245.15205,18.136129 244.34345,18.1354839 243.1754,18.7606452 C236.7456,22.7316129 235.8174,34.1251613 235.8174,42.0219355 C235.8174,49.92 237.0836,52.7193548 237.21685,53.7890323 C237.34555,54.8058065 238.60395,54.9574194 239.0986,54.0651613 C242.515,47.4606452 242.9141,35.4348387 244.0815,28.7419355 C245.7013,26.5548387 252.3079,26.1535484 252.5783,31.3741935 C252.8526,36.6870968 252.3365,50.1180645 257.81145,54.8070968 C258.54985,55.4380645 259.69255,55.1490323 259.53135,54.1658065" id="Fill-123" fill="#FFFFFE"></path>
            <path d="M45.21855,79.4619355 L46.96965,77.38 C48.17995,78.3735484 49.45005,79.0025806 50.9886,79.0025806 C52.20085,79.0025806 52.93275,78.5258065 52.93275,77.7425806 L52.93275,77.7045161 C52.93275,76.9593548 52.4706,76.5780645 50.21965,76.0051613 C47.5072,75.3180645 45.7574,74.5735484 45.7574,71.9187097 L45.7574,71.8812903 C45.7574,69.4574194 47.71975,67.8529032 50.4699,67.8529032 C52.43225,67.8529032 54.10535,68.463871 55.471,69.5522581 L53.9318,71.7677419 C52.73905,70.9458065 51.5658,70.4496774 50.43155,70.4496774 C49.296,70.4496774 48.69995,70.9651613 48.69995,71.6141935 L48.69995,71.6522581 C48.69995,72.5303226 49.2765,72.8167742 51.6048,73.4090323 C54.33675,74.1154839 55.87465,75.0890323 55.87465,77.4180645 L55.87465,77.4567742 C55.87465,80.1103226 53.83625,81.5987097 50.9314,81.5987097 C48.89235,81.5987097 46.83445,80.8922581 45.21855,79.4619355" id="Fill-124" fill="#FFFFFE"></path>
            <path d="M69.9959,74.763871 L69.9959,74.7264516 C69.9959,72.4354839 68.30265,70.5251613 65.91715,70.5251613 C63.5323,70.5251613 61.87805,72.3974194 61.87805,74.6877419 L61.87805,74.7264516 C61.87805,77.0174194 63.5713,78.9270968 65.95615,78.9270968 C68.34165,78.9264516 69.99525,77.0554839 69.9959,74.763871 Z M58.78145,74.763871 L58.78145,74.7264516 C58.78145,70.9264516 61.80135,67.8148387 65.95615,67.8148387 C70.11095,67.8141935 73.0925,70.8890323 73.0925,74.6877419 L73.0925,74.7264516 C73.0925,78.5258065 70.0726,81.6367742 65.91715,81.6367742 C61.76235,81.6367742 58.78145,78.563871 58.78145,74.763871 L58.78145,74.763871 Z" id="Fill-125" fill="#FFFFFE"></path>
            <polyline id="Fill-126" fill="#FFFFFE" points="76.49915 68.043871 79.23045 68.043871 85.54 76.2729032 85.54 68.043871 88.46305 68.043871 88.46305 81.4077419 85.94365 81.4077419 79.42285 72.9122581 79.42285 81.4077419 76.49915 81.4077419 76.49915 68.043871"></polyline>
            <path d="M92.2363,74.763871 L92.2363,74.7264516 C92.2363,70.9264516 95.21785,67.8148387 99.29595,67.8148387 C101.7185,67.8141935 103.181,68.463871 104.585,69.6470968 L102.71885,71.8812903 C101.6808,71.0225806 100.75715,70.5251613 99.1991,70.5251613 C97.04565,70.5251613 95.33225,72.416129 95.33225,74.6877419 L95.33225,74.7264516 C95.33225,77.1703226 97.02615,78.9651613 99.411,78.9651613 C100.4887,78.9651613 101.45005,78.6967742 102.1995,78.1632258 L102.1995,76.2529032 L99.2186,76.2529032 L99.2186,73.7141935 L105.066,73.7141935 L105.066,79.5180645 C103.68085,80.6825806 101.777,81.6367742 99.3148,81.6367742 C95.12035,81.6367742 92.2363,78.716129 92.2363,74.763871" id="Fill-127" fill="#FFFFFE"></path>
            <path d="M115.3984,74.763871 L115.3984,74.7264516 C115.3984,70.9264516 118.28375,67.8148387 122.4197,67.8148387 C124.9573,67.8141935 126.47765,68.6548387 127.7289,69.8774194 L125.8426,72.0341935 C124.8039,71.0980645 123.7457,70.5251613 122.4002,70.5251613 C120.12975,70.5251613 118.495,72.3974194 118.495,74.6877419 L118.495,74.7264516 C118.495,77.0174194 120.0914,78.9270968 122.4002,78.9270968 C123.9381,78.9264516 124.87995,78.3154839 125.93815,77.3612903 L127.8238,79.2516129 C126.43865,80.7212903 124.89945,81.6367742 122.304,81.6367742 C118.3416,81.6367742 115.3984,78.6012903 115.3984,74.763871" id="Fill-128" fill="#FFFFFE"></path>
            <path d="M141.5804,74.763871 L141.5804,74.7264516 C141.5804,72.4354839 139.8865,70.5251613 137.5023,70.5251613 C135.11615,70.5251613 133.46255,72.3974194 133.46255,74.6877419 L133.46255,74.7264516 C133.46255,77.0174194 135.15515,78.9270968 137.54065,78.9270968 C139.9255,78.9264516 141.5804,77.0554839 141.5804,74.763871 Z M130.36595,74.763871 L130.36595,74.7264516 C130.36595,70.9264516 133.3852,67.8148387 137.54065,67.8148387 C141.69545,67.8141935 144.67635,70.8890323 144.67635,74.6877419 L144.67635,74.7264516 C144.67635,78.5258065 141.65645,81.6367742 137.5023,81.6367742 C133.3475,81.6367742 130.36595,78.563871 130.36595,74.763871 L130.36595,74.763871 Z" id="Fill-129" fill="#FFFFFE"></path>
            <polyline id="Fill-130" fill="#FFFFFE" points="148.0843 68.043871 150.81495 68.043871 157.1245 76.2729032 157.1245 68.043871 160.04885 68.043871 160.04885 81.4077419 157.52815 81.4077419 151.00735 72.9122581 151.00735 81.4077419 148.0843 81.4077419 148.0843 68.043871"></polyline>
            <polyline id="Fill-131" fill="#FFFFFE" points="167.2827 70.7548387 163.1851 70.7548387 163.1851 68.043871 174.3417 68.043871 174.3417 70.7548387 170.24475 70.7548387 170.24475 81.4077419 167.2827 81.4077419 167.2827 70.7548387"></polyline>
            <polyline id="Fill-132" fill="#FFFFFE" points="177.76785 68.043871 187.92345 68.043871 187.92345 70.6587097 180.7117 70.6587097 180.7117 73.3696774 187.05895 73.3696774 187.05895 75.9864516 180.7117 75.9864516 180.7117 78.7929032 188.0203 78.7929032 188.0203 81.4077419 177.76785 81.4077419 177.76785 68.043871"></polyline>
            <path d="M190.86925,79.4619355 L192.6197,77.38 C193.8313,78.3735484 195.10075,79.0025806 196.6406,79.0025806 C197.8509,79.0025806 198.5828,78.5258065 198.5828,77.7425806 L198.5828,77.7045161 C198.5828,76.9593548 198.12065,76.5780645 195.87035,76.0051613 C193.1579,75.3180645 191.4081,74.5735484 191.4081,71.9187097 L191.4081,71.8812903 C191.4081,69.4574194 193.3698,67.8529032 196.1206,67.8529032 C198.0823,67.8529032 199.75605,68.463871 201.1217,69.5522581 L199.58315,71.7677419 C198.3904,70.9458065 197.2165,70.4496774 196.08225,70.4496774 C194.948,70.4496774 194.3513,70.9651613 194.3513,71.6141935 L194.3513,71.6522581 C194.3513,72.5303226 194.9272,72.8167742 197.25485,73.4090323 C199.98615,74.1154839 201.52535,75.0890323 201.52535,77.4180645 L201.526,77.4567742 C201.526,80.1103226 199.48695,81.5987097 196.58145,81.5987097 C194.5437,81.5987097 192.48515,80.8922581 190.86925,79.4619355" id="Fill-133" fill="#FFFFFE"></path>
            <polyline id="Fill-134" fill="#FFFFFE" points="208.0871 70.7548387 203.99015 70.7548387 203.99015 68.043871 215.1461 68.043871 215.1461 70.7548387 211.0485 70.7548387 211.0485 81.4077419 208.0871 81.4077419 208.0871 70.7548387"></polyline>
            <path d="M75.2401,88.6780645 L76.4907,88.6780645 L76.4907,98.5335484 L82.7307,98.5335484 L82.7307,99.6806452 L75.2401,99.6806452 L75.2401,88.6780645 Z M86.3408,99.6812903 L87.59205,99.6812903 L87.59205,88.6780645 L86.3408,88.6780645 L86.3408,99.6812903 Z M95.84315,99.8380645 C94.9559,99.8380645 94.146,99.6941935 93.41215,99.4058065 C92.6783,99.1174194 91.9789,98.6748387 91.31395,98.0774194 L92.0894,97.1658065 C92.6705,97.6896774 93.25615,98.0806452 93.84765,98.3367742 C94.4385,98.5935484 95.1197,98.7219355 95.8906,98.7219355 C96.64005,98.7219355 97.23935,98.5464516 97.68785,98.1954839 C98.13635,97.8445161 98.3606,97.3967742 98.3606,96.8516129 L98.3606,96.82 C98.3606,96.5683871 98.319,96.3406452 98.23385,96.136129 C98.14935,95.9316129 98.0018,95.7458065 97.78795,95.5780645 C97.5767,95.4109677 97.2842,95.2587097 96.90915,95.1225806 C96.5315,94.9864516 96.05375,94.8554839 95.4707,94.7296774 C94.83695,94.5935484 94.28315,94.436129 93.8132,94.2580645 C93.34065,94.08 92.9526,93.8651613 92.64645,93.6135484 C92.3403,93.3619355 92.11085,93.0690323 91.9633,92.7335484 C91.8151,92.3980645 91.741,92.0051613 91.741,91.5548387 L91.741,91.5232258 C91.741,91.0935484 91.8307,90.6948387 92.01075,90.3283871 C92.19015,89.9619355 92.443,89.6445161 92.7706,89.3774194 C93.0982,89.1103226 93.483,88.9006452 93.92695,88.7490323 C94.37025,88.5967742 94.8558,88.5206452 95.3836,88.5206452 C96.19675,88.5206452 96.90655,88.6335484 97.51365,88.8587097 C98.12075,89.083871 98.709,89.4219355 99.2797,89.8729032 L98.55105,90.8316129 C98.03365,90.4122581 97.51365,90.1083871 96.99105,89.92 C96.46845,89.7309677 95.9218,89.6367742 95.35175,89.6367742 C94.62375,89.6367742 94.04785,89.8070968 93.626,90.1477419 C93.2035,90.4883871 92.99225,90.9103226 92.99225,91.4129032 L92.99225,91.4445161 C92.99225,91.7064516 93.0345,91.9393548 93.119,92.143871 C93.2035,92.3483871 93.3569,92.5367742 93.57855,92.7096774 C93.8002,92.8825806 94.10635,93.04 94.497,93.1812903 C94.88765,93.3232258 95.3888,93.456129 96.0011,93.5819355 C97.2361,93.8548387 98.1474,94.2316129 98.73305,94.7141935 C99.3187,95.196129 99.61185,95.856129 99.61185,96.6941935 L99.61185,96.7258065 C99.61185,97.1974194 99.51695,97.6245161 99.32975,98.0070968 C99.1419,98.3896774 98.8832,98.7167742 98.55365,98.9890323 C98.22345,99.2619355 97.8276,99.4716129 97.36285,99.6180645 C96.89875,99.7645161 96.39175,99.8380645 95.84315,99.8380645 Z M108.31405,98.5645161 C109.1558,98.5645161 109.81815,98.3922581 110.3037,98.0464516 C110.7873,97.7006452 111.02975,97.2187097 111.02975,96.6 L111.02975,96.5683871 C111.02975,95.9716129 110.78145,95.5077419 110.2881,95.1774194 C109.79215,94.8477419 109.0609,94.6825806 108.0924,94.6825806 L104.59995,94.6825806 L104.59995,98.5645161 L108.31405,98.5645161 Z M107.8701,93.5664516 C108.628,93.5664516 109.2403,93.4012903 109.71025,93.0735484 C110.1776,92.743871 110.41225,92.2567742 110.41225,91.6096774 L110.41225,91.5780645 C110.41225,91.036129 110.201,90.6032258 109.7811,90.2787097 C109.3586,89.9567742 108.75475,89.7941935 107.96565,89.7941935 L104.59995,89.7941935 L104.59995,93.5664516 L107.8701,93.5664516 Z M103.34935,88.6780645 L108.06055,88.6780645 C108.69105,88.6780645 109.2533,88.7645161 109.74145,88.9374194 C110.23285,89.1103226 110.6365,89.3483871 110.95045,89.6496774 C111.4256,90.1425806 111.66285,90.7290323 111.66285,91.4077419 L111.66285,91.4393548 C111.66285,91.7954839 111.6128,92.1129032 111.5127,92.3877419 C111.4126,92.6651613 111.27805,92.9064516 111.11165,93.1103226 C110.94265,93.3148387 110.75545,93.4877419 110.5494,93.6264516 C110.34335,93.7683871 110.1295,93.8858065 109.91045,93.98 C110.23545,94.0748387 110.5442,94.1974194 110.83475,94.3496774 C111.12465,94.5045161 111.37555,94.6851613 111.5842,94.8948387 C111.7948,95.103871 111.9638,95.3529032 112.09055,95.6412903 C112.2173,95.9316129 112.281,96.2645161 112.281,96.6419355 L112.281,96.6735484 C112.281,97.1451613 112.18545,97.5690323 111.99565,97.9412903 C111.80585,98.3135484 111.53675,98.6277419 111.1825,98.8845161 C110.8289,99.143871 110.40445,99.34 109.91045,99.4767742 C109.4145,99.6129032 108.86525,99.6806452 108.26595,99.6806452 L103.34935,99.6806452 L103.34935,88.6780645 Z M121.14895,98.7219355 C121.7827,98.7219355 122.36575,98.603871 122.8994,98.3683871 C123.4324,98.1329032 123.8887,97.8103226 124.26895,97.4019355 C124.64855,96.9929032 124.9469,96.516129 125.16335,95.9716129 C125.38045,95.4264516 125.48835,94.84 125.48835,94.2109677 L125.48835,94.1793548 C125.48835,93.5509677 125.38045,92.9612903 125.16335,92.4109677 C124.9469,91.8612903 124.644,91.3819355 124.25335,90.9729032 C123.8627,90.563871 123.40055,90.2393548 122.86755,89.9980645 C122.33455,89.7574194 121.75085,89.6367742 121.11775,89.6367742 C120.484,89.6367742 119.90095,89.7548387 119.36795,89.9909677 C118.8343,90.2264516 118.378,90.5483871 117.99775,90.9574194 C117.6175,91.3658065 117.31915,91.8425806 117.1027,92.3877419 C116.8869,92.9322581 116.77835,93.5193548 116.77835,94.1483871 L116.77835,94.1793548 C116.77835,94.8083871 116.8869,95.3974194 117.1027,95.9477419 C117.31915,96.4980645 117.6227,96.9774194 118.014,97.3858065 C118.40465,97.7948387 118.86615,98.1193548 119.39915,98.3606452 C119.93215,98.6012903 120.51585,98.7219355 121.14895,98.7219355 Z M121.11775,99.8696774 C120.27275,99.8696774 119.50445,99.7174194 118.8135,99.4135484 C118.1219,99.1096774 117.5278,98.6980645 117.03185,98.18 C116.53525,97.6612903 116.15305,97.0587097 115.88395,96.3722581 C115.6142,95.6858065 115.47965,94.9651613 115.47965,94.2109677 L115.47965,94.1793548 C115.47965,93.4251613 115.61745,92.7019355 115.89175,92.0103226 C116.16605,91.3187097 116.5515,90.7135484 117.04745,90.1948387 C117.54405,89.676129 118.1401,89.2625806 118.8369,88.9529032 C119.5337,88.643871 120.3046,88.4896774 121.14895,88.4896774 C121.9933,88.4896774 122.7616,88.6412903 123.4532,88.9451613 C124.1448,89.2490323 124.7389,89.6606452 125.23485,90.1793548 C125.73145,90.6980645 126.11365,91.3 126.38275,91.9870968 C126.6525,92.6729032 126.7864,93.3935484 126.7864,94.1483871 C126.79745,94.1587097 126.79745,94.1690323 126.7864,94.1793548 C126.7864,94.9341935 126.64925,95.6567742 126.37495,96.3483871 C126.10065,97.04 125.7152,97.6451613 125.21925,98.163871 C124.72265,98.6825806 124.1266,99.0967742 123.4298,99.4058065 C122.733,99.7148387 121.9621,99.8696774 121.11775,99.8696774 Z M130.61945,88.6780645 L131.7914,88.6780645 L138.775,97.496129 L138.775,88.6780645 L139.9944,88.6780645 L139.9944,99.6806452 L138.99665,99.6806452 L131.83885,90.6587097 L131.83885,99.6806452 L130.61945,99.6806452 L130.61945,88.6780645 Z M147.0729,98.7219355 L151.09575,95.2012903 C151.5176,94.823871 151.8764,94.4832258 152.17215,94.1793548 C152.4679,93.8754839 152.70515,93.5903226 152.88455,93.3232258 C153.06395,93.0554839 153.1959,92.7935484 153.28105,92.5367742 C153.36555,92.28 153.40715,92.0154839 153.40715,91.7432258 C153.40715,91.4180645 153.3467,91.1277419 153.22515,90.8709677 C153.1036,90.6141935 152.94305,90.3941935 152.7422,90.2103226 C152.54135,90.0270968 152.3041,89.8858065 152.0298,89.7864516 C151.75485,89.6864516 151.47015,89.6367742 151.1744,89.6367742 C150.5413,89.6367742 149.99725,89.7967742 149.54355,90.116129 C149.0892,90.436129 148.6407,90.9051613 148.1974,91.5232258 L147.27895,90.8632258 C147.53245,90.496129 147.79115,90.1658065 148.05505,89.8729032 C148.31895,89.5793548 148.60625,89.3329032 148.91825,89.1335484 C149.22895,88.9348387 149.578,88.7825806 149.9628,88.6780645 C150.34825,88.5729032 150.78375,88.5206452 151.2693,88.5206452 C151.7659,88.5206452 152.2248,88.5993548 152.6473,88.7567742 C153.0698,88.9141935 153.4338,89.1309677 153.73995,89.4116129 C154.0461,89.6890323 154.28335,90.0167742 154.453,90.3941935 C154.62135,90.7709677 154.70585,91.1877419 154.70585,91.6387097 L154.70585,91.6696774 C154.70585,92.0677419 154.6506,92.4374194 154.53945,92.7806452 C154.42895,93.1212903 154.25995,93.456129 154.0331,93.7864516 C153.8056,94.1167742 153.5157,94.4574194 153.1621,94.8032258 C152.8085,95.1490323 152.3886,95.5309677 151.90305,95.9503226 L148.94165,98.5645161 L154.81635,98.5645161 L154.81635,99.6806452 L147.0729,99.6806452 L147.0729,98.7219355 Z M162.6716,98.7535484 C163.189,98.7535484 163.65635,98.6303226 164.073,98.383871 C164.4903,98.1354839 164.8439,97.8051613 165.1338,97.3890323 C165.42435,96.9748387 165.646,96.4903226 165.7994,95.9374194 C165.95215,95.3870968 166.02885,94.8109677 166.02885,94.2109677 L166.02885,94.1793548 C166.02885,93.5793548 165.94955,93.0032258 165.79095,92.4529032 C165.633,91.9 165.40615,91.4129032 165.1104,90.9941935 C164.81465,90.5722581 164.45845,90.2367742 164.04115,89.9851613 C163.6245,89.7309677 163.15715,89.6051613 162.63975,89.6051613 C162.12235,89.6051613 161.65565,89.7283871 161.23835,89.9748387 C160.8217,90.223871 160.46745,90.5535484 160.17755,90.9703226 C159.887,91.3845161 159.66275,91.8664516 159.50415,92.4135484 C159.3462,92.9587097 159.2669,93.5374194 159.2669,94.1483871 L159.2669,94.1793548 C159.2669,94.7793548 159.3462,95.3554839 159.50415,95.9058065 C159.66275,96.4587097 159.8896,96.9458065 160.18535,97.3651613 C160.4811,97.7864516 160.8399,98.1219355 161.2624,98.3735484 C161.68425,98.6277419 162.1542,98.7535484 162.6716,98.7535484 Z M162.63975,99.8696774 C161.92215,99.8696774 161.2754,99.72 160.70015,99.4212903 C160.12425,99.1225806 159.6335,98.7141935 159.22725,98.1954839 C158.821,97.6767742 158.50965,97.0767742 158.2932,96.3954839 C158.0761,95.7148387 157.9682,94.9864516 157.9682,94.2109677 L157.9682,94.1793548 C157.9682,93.4148387 158.07935,92.6864516 158.30035,91.9948387 C158.52265,91.3032258 158.8392,90.6980645 159.2513,90.1793548 C159.66275,89.6606452 160.1561,89.2490323 160.73135,88.9451613 C161.3066,88.6412903 161.954,88.4896774 162.6716,88.4896774 C163.3788,88.4896774 164.02035,88.6387097 164.5956,88.9374194 C165.17085,89.236129 165.66225,89.6445161 166.0685,90.1632258 C166.47475,90.6819355 166.7861,91.2845161 167.00255,91.9709677 C167.219,92.6574194 167.32755,93.3832258 167.32755,94.1483871 L167.32755,94.1793548 C167.32755,94.9548387 167.2164,95.6858065 166.99475,96.3722581 C166.7731,97.0587097 166.45915,97.6612903 166.0529,98.18 C165.646,98.6980645 165.15265,99.1096774 164.57155,99.4135484 C163.9911,99.7174194 163.3476,99.8696774 162.63975,99.8696774 Z M172.3319,89.8883871 L170.2415,90.5329032 L169.94055,89.5270968 L172.65365,88.5993548 L173.58315,88.5993548 L173.58315,99.6806452 L172.3319,99.6806452 L172.3319,89.8883871 Z M181.33505,98.7535484 C181.79135,98.7535484 182.1976,98.6980645 182.5564,98.5883871 C182.91845,98.4780645 183.222,98.3290323 183.4703,98.1406452 C183.71795,97.9516129 183.911,97.7341935 184.04295,97.4883871 C184.1749,97.2419355 184.24055,96.9774194 184.24055,96.6941935 L184.24055,96.6625806 C184.24055,96.3593548 184.16385,96.0787097 184.0111,95.8219355 C183.85835,95.5651613 183.6497,95.3451613 183.391,95.1619355 C183.1323,94.9787097 182.82615,94.8341935 182.46995,94.7296774 C182.11635,94.6245161 181.7361,94.5722581 181.33505,94.5722581 C180.93335,94.5722581 180.55375,94.6245161 180.1995,94.7296774 C179.8433,94.8341935 179.53455,94.9787097 179.27065,95.1619355 C179.00675,95.3451613 178.7981,95.5651613 178.65055,95.8219355 C178.50235,96.0787097 178.4289,96.3593548 178.4289,96.6625806 L178.4289,96.6941935 C178.4289,96.9774194 178.49455,97.2419355 178.6265,97.4883871 C178.7591,97.7341935 178.9515,97.9516129 179.19915,98.1406452 C179.44745,98.3290323 179.751,98.4780645 180.11305,98.5883871 C180.47185,98.6980645 180.8807,98.7535484 181.33505,98.7535484 Z M181.34285,93.5509677 C181.69125,93.5509677 182.0208,93.5006452 182.33215,93.4012903 C182.6435,93.3019355 182.91325,93.1651613 183.1401,92.9929032 C183.36695,92.82 183.54635,92.6103226 183.6783,92.363871 C183.81025,92.1180645 183.87655,91.8425806 183.87655,91.5387097 L183.87655,91.5077419 C183.87655,91.2348387 183.81285,90.9832258 183.68675,90.7529032 C183.56,90.5225806 183.3832,90.3206452 183.15635,90.1477419 C182.92885,89.9748387 182.65975,89.8412903 182.3484,89.7470968 C182.03705,89.6522581 181.70165,89.6051613 181.34285,89.6051613 C180.9834,89.6051613 180.64865,89.6522581 180.33665,89.7470968 C180.0253,89.8412903 179.7562,89.9722581 179.52935,90.14 C179.3025,90.3077419 179.1257,90.5090323 178.99895,90.7451613 C178.8722,90.9806452 178.8085,91.2348387 178.8085,91.5077419 L178.8085,91.5387097 C178.8085,91.8425806 178.8748,92.1180645 179.00675,92.363871 C179.1387,92.6103226 179.3181,92.82 179.54495,92.9929032 C179.77245,93.1651613 180.04155,93.3019355 180.3529,93.4012903 C180.66425,93.5006452 180.99445,93.5509677 181.34285,93.5509677 Z M181.33505,99.8380645 C180.74355,99.8380645 180.19755,99.7619355 179.69055,99.6103226 C179.18615,99.4580645 178.74545,99.2458065 178.3704,98.9735484 C177.996,98.7012903 177.70545,98.3735484 177.49485,97.9909677 C177.2836,97.6083871 177.17765,97.1870968 177.17765,96.7258065 L177.17765,96.6941935 C177.17765,96.0341935 177.3915,95.4787097 177.8192,95.0283871 C178.2443,94.5774194 178.7903,94.2316129 179.45265,93.9909677 C179.2024,93.8754839 178.9593,93.7367742 178.72725,93.5741935 C178.49455,93.4116129 178.2911,93.2283871 178.11755,93.023871 C177.94595,92.82 177.8088,92.5870968 177.70805,92.3245161 C177.60795,92.0625806 177.5579,91.7741935 177.5579,91.46 L177.5579,91.4290323 C177.5579,91.0096774 177.6606,90.6219355 177.86665,90.2658065 C178.07205,89.9090323 178.347,89.6 178.6902,89.3380645 C179.0334,89.076129 179.43445,88.8741935 179.89335,88.7329032 C180.3529,88.5916129 180.83585,88.5206452 181.34285,88.5206452 C181.8492,88.5206452 182.33215,88.5916129 182.7917,88.7329032 C183.2506,88.8741935 183.6523,89.076129 183.9955,89.3380645 C184.3387,89.6 184.613,89.9090323 184.8184,90.2658065 C185.02445,90.6219355 185.1278,91.0096774 185.1278,91.4290323 L185.1278,91.46 C185.1278,91.7741935 185.0771,92.0625806 184.977,92.3245161 C184.8743,92.5870968 184.73715,92.82 184.56295,93.023871 C184.38615,93.2283871 184.1827,93.4116129 183.94805,93.5741935 C183.71535,93.7367742 183.4703,93.8754839 183.21615,93.9909677 C183.86875,94.2316129 184.41215,94.5774194 184.84245,95.0283871 C185.27535,95.4787097 185.4918,96.0290323 185.4918,96.6787097 L185.4918,96.7103226 C185.4918,97.1812903 185.3865,97.6083871 185.17525,97.9909677 C184.964,98.3735484 184.67345,98.7012903 184.29905,98.9735484 C183.924,99.2458065 183.4833,99.4580645 182.9789,99.6103226 C182.47255,99.7619355 181.9259,99.8380645 181.33505,99.8380645 L181.33505,99.8380645 Z" id="Fill-135" fill="#FFFFFE"></path>
        </g>
    </g>
</svg>